<svg xmlns="http://www.w3.org/2000/svg" xmlns:xlink="http://www.w3.org/1999/xlink" width="1920" zoomAndPan="magnify" viewBox="0 0 1440 809.999993" height="1080" preserveAspectRatio="xMidYMid meet" version="1.0"><defs><clipPath id="f6d3a87e30"><path d="M 745.605469 513 L 822.855469 513 L 822.855469 554 L 745.605469 554 Z M 745.605469 513 " clip-rule="nonzero"/></clipPath></defs><g clip-path="url(#f6d3a87e30)"><path fill="#4a7aa7" d="M 820.933594 531.058594 L 797.175781 514.511719 C 794.894531 512.925781 791.769531 514.554688 791.769531 517.335938 L 791.769531 522.6875 C 791.769531 523.90625 790.78125 524.894531 789.5625 524.894531 L 749.042969 524.894531 C 747.144531 524.894531 745.605469 526.433594 745.605469 528.335938 L 745.605469 539.429688 C 745.605469 541.328125 747.144531 542.871094 749.042969 542.871094 L 789.5625 542.871094 C 790.78125 542.871094 791.769531 543.855469 791.769531 545.074219 L 791.769531 550.429688 C 791.769531 553.207031 794.894531 554.839844 797.175781 553.25 L 820.933594 536.707031 C 822.898438 535.335938 822.898438 532.429688 820.933594 531.058594 " fill-opacity="1" fill-rule="nonzero"/></g></svg>