<svg xmlns="http://www.w3.org/2000/svg" xmlns:xlink="http://www.w3.org/1999/xlink" width="1920" zoomAndPan="magnify" viewBox="0 0 1440 809.999993" height="1080" preserveAspectRatio="xMidYMid meet" version="1.0"><defs><g/><clipPath id="ee5fd90065"><path d="M 178 0.640625 L 256 0.640625 L 256 147 L 178 147 Z M 178 0.640625 " clip-rule="nonzero"/></clipPath><clipPath id="03454fea05"><path d="M 283 0.640625 L 419 0.640625 L 419 159 L 283 159 Z M 283 0.640625 " clip-rule="nonzero"/></clipPath><clipPath id="91cf2a8b70"><rect x="0" width="499" y="0" height="195"/></clipPath></defs><g transform="matrix(1, 0, 0, 1, 500, 350)"><g clip-path="url(#91cf2a8b70)"><g fill="#ffffff" fill-opacity="1"><g transform="translate(47.29792, 154.067949)"><g><path d="M 47.871094 11.722656 C 39.734375 13.714844 32.246094 14.363281 25.398438 13.664062 C 18.210938 12.933594 11.691406 10.992188 5.847656 7.839844 C 0.160156 4.90625 -4.800781 0.886719 -9.039062 -4.214844 C -12.5625 -8.273438 -15.660156 -12.9375 -18.324219 -18.203125 C -20.710938 -22.859375 -22.734375 -27.796875 -24.390625 -33.027344 C -25.851562 -37.640625 -27.144531 -42.242188 -28.265625 -46.835938 C -29.363281 -51.304688 -30.34375 -55.75 -31.210938 -60.175781 L -12.320312 -63.878906 L -31.121094 -59.746094 C -32.25 -64.882812 -32.910156 -69.96875 -33.097656 -75.003906 C -33.28125 -80.597656 -32.746094 -86 -31.496094 -91.210938 L -12.777344 -86.71875 L -31.601562 -90.757812 C -30.246094 -97.074219 -27.511719 -102.921875 -23.40625 -108.304688 C -19.585938 -113.304688 -14.597656 -117.691406 -8.433594 -121.460938 C -2.859375 -124.875 3.996094 -127.765625 12.125 -130.132812 L 12.527344 -130.25 L 15.210938 -130.910156 C 22.695312 -132.742188 29.605469 -133.375 35.949219 -132.808594 C 42.792969 -132.050781 48.929688 -130.292969 54.347656 -127.527344 C 59.746094 -124.660156 64.433594 -121.046875 68.40625 -116.691406 L 68.636719 -116.4375 L 68.859375 -116.175781 C 72.097656 -112.363281 74.933594 -108.25 77.363281 -103.84375 L 77.507812 -103.578125 L 77.648438 -103.308594 C 79.765625 -99.164062 81.609375 -94.890625 83.179688 -90.492188 L 83.265625 -90.242188 L 83.347656 -89.992188 C 84.714844 -85.808594 85.894531 -81.675781 86.890625 -77.601562 L 90.867188 -61.371094 L 28.644531 -36.425781 L 23.367188 -57.96875 C 22.941406 -59.707031 22.457031 -61.382812 21.910156 -62.992188 L 40.140625 -69.171875 L 22.191406 -62.214844 C 21.894531 -62.988281 21.59375 -63.597656 21.289062 -64.046875 C 21.757812 -63.351562 22.488281 -62.703125 23.480469 -62.101562 L 33.464844 -78.5625 L 24.203125 -61.683594 C 25.792969 -60.8125 27.484375 -60.285156 29.28125 -60.105469 C 30.679688 -59.964844 32 -60.042969 33.242188 -60.347656 L 31.960938 -60.035156 C 33.980469 -60.53125 35.78125 -61.34375 37.367188 -62.472656 L 36.035156 -61.523438 L 34.566406 -60.8125 C 34.066406 -60.570312 33.71875 -60.382812 33.515625 -60.25 C 33.835938 -60.460938 34.21875 -60.800781 34.671875 -61.28125 C 36.453125 -63.21875 37.46875 -65.28125 37.714844 -67.464844 C 37.738281 -67.664062 37.75 -67.832031 37.75 -67.972656 L 37.75 -67.992188 C 37.75 -67.960938 37.753906 -67.921875 37.757812 -67.875 C 37.792969 -67.449219 37.882812 -66.894531 38.027344 -66.203125 C 38.613281 -63.441406 39.460938 -59.785156 40.574219 -55.234375 C 41.546875 -51.25 42.429688 -47.847656 43.214844 -45.023438 C 43.429688 -44.25 43.640625 -43.609375 43.851562 -43.101562 C 43.910156 -42.957031 43.960938 -42.84375 44.003906 -42.757812 L 44.007812 -42.75 C 43.992188 -42.777344 43.972656 -42.8125 43.949219 -42.851562 C 43.507812 -43.550781 42.914062 -44.222656 42.175781 -44.863281 C 41.082031 -45.808594 39.835938 -46.535156 38.433594 -47.042969 L 38.726562 -46.9375 L 39.015625 -46.820312 C 37.464844 -47.441406 35.960938 -47.746094 34.503906 -47.738281 C 34.183594 -47.734375 33.902344 -47.71875 33.65625 -47.683594 L 33.625 -47.683594 C 33.800781 -47.726562 33.90625 -47.753906 33.941406 -47.769531 C 33.699219 -47.675781 33.414062 -47.53125 33.085938 -47.339844 C 31.375 -46.324219 29.957031 -44.824219 28.835938 -42.839844 L 28.980469 -43.09375 L 29.128906 -43.34375 C 28.246094 -41.890625 27.726562 -40.46875 27.566406 -39.078125 C 27.542969 -38.867188 27.53125 -38.710938 27.535156 -38.605469 C 27.53125 -38.730469 27.511719 -38.914062 27.480469 -39.15625 L 46.554688 -41.75 L 27.855469 -37.171875 L 27.820312 -37.316406 L 46.519531 -41.894531 L 52.5 -23.59375 L 41.457031 -19.984375 L 35.476562 -38.28125 L 54.171875 -42.859375 L 54.183594 -42.820312 L 16.785156 -33.664062 L 16.722656 -33.917969 L 16.496094 -34.84375 L 15.730469 -37.976562 L 14.753906 -41.96875 L 9.570312 -63.128906 L 35.074219 -70.8125 L 40.628906 -52.378906 L 34.515625 -70.632812 L 52.9375 -76.804688 L 59.050781 -58.550781 L 52.296875 -76.578125 L 84.210938 -88.542969 L 89.367188 -67.484375 C 90.4375 -63.125 91.332031 -58.773438 92.058594 -54.429688 C 92.882812 -49.480469 93.28125 -44.644531 93.261719 -39.921875 C 93.269531 -34.492188 92.570312 -29.296875 91.167969 -24.328125 C 89.386719 -18.265625 86.464844 -12.808594 82.402344 -7.96875 C 78.585938 -3.367188 73.757812 0.636719 67.914062 4.039062 C 62.296875 7.265625 55.617188 9.824219 47.871094 11.722656 Z M 38.714844 -25.675781 C 42.933594 -26.707031 46.207031 -27.894531 48.535156 -29.230469 C 50.445312 -30.34375 51.902344 -31.503906 52.902344 -32.710938 C 53.515625 -33.445312 53.921875 -34.140625 54.117188 -34.800781 C 54.546875 -36.324219 54.761719 -38.09375 54.757812 -40.109375 C 54.769531 -42.644531 54.542969 -45.304688 54.078125 -48.09375 C 53.511719 -51.492188 52.808594 -54.902344 51.972656 -58.328125 L 70.667969 -62.90625 L 77.425781 -44.878906 L 65.488281 -40.40625 L 46.464844 -34.035156 L 38.167969 -31.53125 L 32.613281 -49.964844 L 51.3125 -54.542969 L 52.148438 -51.125 L 53.128906 -47.136719 L 53.894531 -44 L 54.121094 -43.074219 L 54.183594 -42.820312 C 54.484375 -41.59375 54.660156 -40.347656 54.71875 -39.085938 C 54.773438 -37.820312 54.703125 -36.566406 54.511719 -35.316406 C 54.320312 -34.066406 54.007812 -32.847656 53.574219 -31.660156 C 53.144531 -30.472656 52.601562 -29.339844 51.945312 -28.257812 C 51.289062 -27.175781 50.535156 -26.171875 49.679688 -25.238281 C 48.824219 -24.304688 47.890625 -23.464844 46.871094 -22.71875 C 45.851562 -21.972656 44.769531 -21.332031 43.625 -20.796875 C 42.476562 -20.261719 41.289062 -19.84375 40.0625 -19.542969 C 38.835938 -19.242188 37.589844 -19.066406 36.328125 -19.007812 C 35.0625 -18.953125 33.808594 -19.023438 32.558594 -19.214844 C 31.308594 -19.40625 30.089844 -19.71875 28.902344 -20.152344 C 27.714844 -20.582031 26.582031 -21.128906 25.5 -21.78125 C 24.417969 -22.4375 23.414062 -23.191406 22.480469 -24.046875 C 21.550781 -24.902344 20.710938 -25.835938 19.960938 -26.855469 C 19.214844 -27.875 18.574219 -28.957031 18.039062 -30.105469 C 17.503906 -31.25 17.085938 -32.4375 16.785156 -33.664062 L 12.53125 -51.035156 L 60.28125 -66.644531 L 65.492188 -45.347656 L 65.628906 -44.347656 C 66.746094 -36.140625 65.554688 -29.152344 62.046875 -23.375 L 45.589844 -33.359375 L 62.34375 -23.878906 C 58.488281 -17.066406 51.96875 -12.535156 42.78125 -10.285156 C 36.128906 -8.65625 30.109375 -8.917969 24.730469 -11.066406 L 31.871094 -28.945312 L 25.308594 -10.847656 C 19.511719 -12.949219 14.863281 -16.777344 11.367188 -22.335938 C 9.210938 -25.757812 7.464844 -29.878906 6.121094 -34.703125 C 5.230469 -37.914062 4.246094 -41.707031 3.175781 -46.078125 C 1.964844 -51.027344 1.023438 -55.089844 0.355469 -58.257812 C -0.699219 -63.257812 -1 -67.773438 -0.542969 -71.800781 C 0.152344 -77.921875 2.582031 -83.25 6.746094 -87.785156 C 9.476562 -90.660156 13.152344 -93.21875 17.773438 -95.460938 L 26.171875 -78.136719 L 14.972656 -93.796875 C 17.414062 -95.539062 20.023438 -96.75 22.804688 -97.433594 L 24.085938 -97.746094 C 27.132812 -98.492188 30.15625 -98.714844 33.15625 -98.410156 C 36.550781 -98.066406 39.742188 -97.078125 42.726562 -95.441406 L 43.089844 -95.238281 L 43.449219 -95.019531 C 47.277344 -92.699219 50.535156 -89.546875 53.214844 -85.570312 C 55.125 -82.734375 56.753906 -79.589844 58.09375 -76.132812 L 58.242188 -75.746094 L 58.375 -75.355469 C 59.277344 -72.6875 60.074219 -69.945312 60.765625 -67.125 L 42.066406 -62.546875 L 34.902344 -80.417969 L 61.03125 -90.890625 L 68.191406 -73.023438 L 49.496094 -68.445312 C 48.726562 -71.585938 47.808594 -74.792969 46.742188 -78.066406 L 65.046875 -84.03125 L 46.910156 -77.566406 C 45.90625 -80.390625 44.722656 -83.128906 43.367188 -85.78125 L 60.507812 -94.546875 L 43.652344 -85.246094 C 42.460938 -87.402344 41.082031 -89.40625 39.507812 -91.261719 L 54.183594 -103.71875 L 39.960938 -90.746094 C 38.980469 -91.820312 37.949219 -92.648438 36.867188 -93.226562 C 35.617188 -93.863281 34.171875 -94.273438 32.53125 -94.457031 C 30.433594 -94.644531 27.710938 -94.328125 24.367188 -93.511719 L 22.089844 -92.953125 L 17.511719 -111.652344 L 22.898438 -93.167969 C 18.058594 -91.757812 14.3125 -90.242188 11.660156 -88.621094 C 9.589844 -87.355469 8.105469 -86.128906 7.199219 -84.941406 C 6.578125 -84.128906 6.195312 -83.378906 6.046875 -82.679688 L 5.996094 -82.453125 L 5.941406 -82.226562 C 5.5 -80.378906 5.308594 -78.457031 5.375 -76.460938 C 5.480469 -73.71875 5.847656 -70.902344 6.484375 -68.011719 L 6.53125 -67.796875 L 6.574219 -67.582031 C 7.324219 -63.746094 8.175781 -59.882812 9.128906 -55.992188 C 10.050781 -52.230469 11.113281 -48.449219 12.316406 -44.652344 C 13.324219 -41.472656 14.558594 -38.453125 16.027344 -35.59375 C 17.257812 -33.15625 18.777344 -30.898438 20.582031 -28.8125 C 21.484375 -27.722656 22.664062 -26.804688 24.121094 -26.050781 C 25.46875 -25.324219 27.191406 -24.855469 29.296875 -24.640625 C 31.742188 -24.390625 34.878906 -24.734375 38.714844 -25.675781 Z M 38.714844 -25.675781 "/></g></g></g><g fill="#ffffff" fill-opacity="1"><g transform="translate(127.481928, 134.505132)"><g><path d="M 87.855469 -41.917969 C 88.425781 -36.449219 88.539062 -31.132812 88.195312 -25.960938 C 87.574219 -18.601562 85.492188 -11.945312 81.949219 -5.996094 C 77.949219 0.445312 72.34375 5.683594 65.132812 9.722656 C 58.617188 13.464844 50.203125 15.988281 39.898438 17.296875 C 29.230469 18.652344 20.09375 17.996094 12.488281 15.328125 C 4.386719 12.5625 -2.203125 8.179688 -7.28125 2.171875 L 7.421875 -10.257812 L -6.882812 2.628906 C -11.757812 -2.785156 -15.230469 -9.171875 -17.300781 -16.53125 C -18.800781 -21.800781 -19.902344 -27.199219 -20.601562 -32.71875 C -21.25 -37.820312 -21.679688 -42.945312 -21.894531 -48.101562 C -22.183594 -55.414062 -20.976562 -62.386719 -18.269531 -69.015625 C -15.101562 -76.542969 -9.808594 -82.878906 -2.398438 -88.023438 C 4.125 -92.628906 13 -95.910156 24.238281 -97.867188 L 24.675781 -97.941406 L 27.585938 -98.3125 C 38.46875 -99.691406 47.839844 -98.734375 55.699219 -95.433594 L 55.933594 -95.332031 L 56.164062 -95.230469 C 63.628906 -91.859375 69.742188 -87.148438 74.503906 -81.09375 C 78.824219 -75.390625 81.941406 -69.191406 83.84375 -62.5 C 85.328125 -57.226562 86.429688 -52.214844 87.152344 -47.464844 L 89.859375 -29.617188 L 28.488281 -16.222656 L 24.382812 -35.03125 L 43.480469 -37.457031 C 43.867188 -34.421875 44.234375 -31.878906 44.582031 -29.828125 C 44.648438 -29.417969 44.710938 -29.125 44.765625 -28.945312 C 44.707031 -29.140625 44.585938 -29.410156 44.40625 -29.75 L 44.65625 -29.273438 L 44.882812 -28.785156 C 44.246094 -30.167969 43.351562 -31.433594 42.195312 -32.582031 C 40.792969 -33.96875 39.171875 -35.019531 37.339844 -35.722656 L 38.183594 -35.398438 L 38.996094 -34.996094 C 37.480469 -35.75 35.980469 -36.195312 34.488281 -36.332031 C 33.984375 -36.378906 33.613281 -36.386719 33.382812 -36.359375 C 33.425781 -36.363281 33.464844 -36.371094 33.492188 -36.375 C 33.488281 -36.375 33.476562 -36.371094 33.460938 -36.367188 C 33.3125 -36.335938 33.136719 -36.289062 32.933594 -36.222656 C 31.921875 -35.894531 30.898438 -35.363281 29.871094 -34.628906 L 30.355469 -34.972656 L 30.855469 -35.285156 C 29.363281 -34.355469 28.089844 -33.167969 27.035156 -31.730469 C 26.070312 -30.417969 25.375 -29.015625 24.945312 -27.519531 L 25.019531 -27.773438 L 25.097656 -28.027344 C 24.875 -27.320312 24.738281 -26.660156 24.6875 -26.046875 C 24.675781 -25.90625 24.671875 -25.785156 24.671875 -25.679688 L 24.667969 -25.6875 C 24.542969 -27.320312 24.335938 -29.285156 24.042969 -31.585938 L 21.851562 -48.851562 L 85.59375 -63.578125 Z M 49.5625 -37.917969 L 68.710938 -39.917969 L 73.042969 -21.160156 L 47.476562 -15.253906 L 43.140625 -34.011719 L 62.238281 -36.4375 C 62.613281 -33.5 62.886719 -30.894531 63.058594 -28.621094 C 63.398438 -24.191406 62.980469 -20.125 61.8125 -16.421875 L 43.457031 -22.222656 L 61.964844 -16.929688 C 61.125 -14 59.828125 -11.335938 58.066406 -8.9375 C 56.210938 -6.414062 53.945312 -4.3125 51.265625 -2.636719 L 41.058594 -18.960938 L 52.25 -3.296875 C 48.441406 -0.578125 43.769531 1.132812 38.230469 1.835938 C 32.046875 2.621094 26.585938 1.835938 21.84375 -0.523438 L 30.421875 -17.757812 L 23.5 0.203125 C 20.320312 -1.019531 17.519531 -2.828125 15.101562 -5.222656 C 12.929688 -7.375 11.1875 -9.886719 9.871094 -12.761719 L 27.375 -20.773438 L 10.34375 -11.796875 C 8.605469 -15.101562 7.363281 -18.964844 6.621094 -23.394531 C 6.183594 -25.972656 5.738281 -29.042969 5.285156 -32.605469 L 3.066406 -50.082031 L 64.011719 -63.382812 L 68.117188 -44.574219 L 49.085938 -41.683594 C 48.601562 -44.867188 47.84375 -48.292969 46.8125 -51.960938 C 46.226562 -54.023438 45.371094 -55.796875 44.246094 -57.285156 C 43.367188 -58.402344 42.058594 -59.351562 40.320312 -60.136719 L 48.242188 -77.683594 L 40.789062 -59.933594 C 40.316406 -60.132812 39.574219 -60.273438 38.5625 -60.359375 C 36.871094 -60.5 34.828125 -60.417969 32.433594 -60.113281 L 29.960938 -59.800781 L 27.539062 -78.898438 L 30.835938 -59.933594 C 27.699219 -59.386719 25.058594 -58.734375 22.914062 -57.976562 C 21.433594 -57.453125 20.308594 -56.925781 19.546875 -56.386719 C 18.714844 -55.808594 18.074219 -55.261719 17.636719 -54.753906 C 17.457031 -54.542969 17.371094 -54.453125 17.378906 -54.472656 C 16.777344 -52.996094 16.507812 -51.402344 16.574219 -49.691406 C 16.742188 -45.628906 17.082031 -41.585938 17.59375 -37.570312 C 18.050781 -33.972656 18.773438 -30.433594 19.765625 -26.953125 C 20.210938 -25.367188 20.863281 -24.097656 21.722656 -23.140625 L 21.929688 -22.914062 L 22.125 -22.683594 C 22.613281 -22.105469 23.648438 -21.542969 25.234375 -21.003906 C 25.886719 -20.773438 26.859375 -20.621094 28.144531 -20.550781 C 30.078125 -20.445312 32.378906 -20.558594 35.046875 -20.898438 C 40.261719 -21.558594 44.019531 -22.550781 46.324219 -23.871094 C 47.761719 -24.679688 48.609375 -25.285156 48.867188 -25.691406 C 49.386719 -26.566406 49.691406 -27.507812 49.78125 -28.515625 C 49.976562 -31.5 49.90625 -34.632812 49.5625 -37.917969 Z M 43.613281 -27.972656 L 26.324219 -25.777344 L 19.785156 -53.207031 L 38.511719 -57.671875 L 20.261719 -51.546875 C 21.207031 -48.722656 22.859375 -46.542969 25.21875 -45.015625 C 26.484375 -44.191406 27.871094 -43.613281 29.375 -43.285156 C 30.75 -42.988281 32.09375 -42.921875 33.414062 -43.089844 C 33.914062 -43.152344 34.335938 -43.25 34.683594 -43.386719 C 35.628906 -43.753906 36.539062 -44.320312 37.421875 -45.082031 L 37.074219 -44.78125 L 36.714844 -44.5 C 38.085938 -45.578125 39.179688 -46.9375 39.992188 -48.574219 L 39.679688 -47.945312 L 39.320312 -47.339844 C 40.996094 -50.167969 41.636719 -53.136719 41.242188 -56.242188 L 42.496094 -45.199219 L 42.484375 -45.3125 L 23.386719 -42.886719 L 18.96875 -61.625 L 57.445312 -70.699219 L 60.160156 -49.332031 L 41.0625 -46.90625 L 25.84375 -58.695312 L 25.96875 -58.859375 L 41.1875 -47.070312 Z M 84.871094 -72.019531 L 27.816406 1.625 L 21.945312 -44.628906 L 41.042969 -47.050781 L 45.460938 -28.316406 L 6.980469 -19.242188 L 4.238281 -40.867188 L 3.046875 -51.394531 C 2.332031 -57.023438 3.382812 -62.214844 6.195312 -66.960938 L 22.757812 -57.148438 L 5.523438 -65.726562 C 7.28125 -69.257812 9.742188 -72.265625 12.90625 -74.757812 L 24.808594 -59.628906 L 12.199219 -74.171875 C 14.675781 -76.324219 17.515625 -78.019531 20.714844 -79.265625 C 23.3125 -80.277344 25.929688 -80.949219 28.566406 -81.285156 C 31.628906 -81.671875 34.636719 -81.546875 37.578125 -80.90625 C 40.65625 -80.234375 43.523438 -79.035156 46.1875 -77.304688 C 51.339844 -73.957031 54.863281 -69.457031 56.761719 -63.792969 L 57.039062 -62.976562 L 59.769531 -51.515625 L 41.042969 -47.050781 L 38.617188 -66.148438 L 38.765625 -66.167969 Z M 84.871094 -72.019531 "/></g></g></g><g clip-path="url(#ee5fd90065)"><g fill="#ffffff" fill-opacity="1"><g transform="translate(200.265967, 125.931318)"><g><path d="M 48.5625 -104.355469 L 49.761719 16.929688 L -14.871094 19.972656 L -21.976562 -118.199219 L 48.351562 -125.492188 Z M 10.0625 -103.972656 L 29.3125 -104.164062 L 31.296875 -85.015625 L 0.171875 -81.789062 L -1.8125 -100.9375 L 17.414062 -101.925781 L 22.59375 -1.148438 L 3.371094 -0.160156 L 2.464844 -19.386719 L 29.421875 -20.65625 L 30.328125 -1.425781 L 11.078125 -1.238281 Z M 10.0625 -103.972656 "/></g></g></g></g><g fill="#ffffff" fill-opacity="1"><g transform="translate(234.549353, 123.470959)"><g><path d="M -15.777344 -17.515625 C -15.582031 -23.742188 -14.078125 -29.234375 -11.261719 -33.996094 C -8.527344 -38.617188 -4.929688 -42.320312 -0.464844 -45.09375 C 3.441406 -47.527344 7.796875 -49.164062 12.605469 -50.011719 C 16.269531 -50.65625 20.082031 -50.914062 24.042969 -50.792969 C 30.183594 -50.597656 36.285156 -49.707031 42.347656 -48.117188 L 42.808594 -47.992188 C 48.203125 -46.429688 52.84375 -44.789062 56.730469 -43.066406 L 48.929688 -25.46875 L 29.6875 -26.070312 L 30.28125 -44.984375 L 49.523438 -44.378906 L 50.585938 -25.15625 L -12.710938 -21.65625 L -10.472656 -93.171875 L 8.972656 -92.351562 C 18.046875 -91.96875 26.632812 -91.550781 34.726562 -91.097656 C 42.792969 -90.648438 49.925781 -90.171875 56.128906 -89.679688 L 94.074219 -86.773438 L 89.542969 22.066406 L 29.644531 20.1875 L 29.296875 -8.371094 L 48.546875 -8.605469 L 61.085938 6.003906 C 55.757812 10.578125 49.695312 14.074219 42.894531 16.492188 C 36.035156 19.019531 29.160156 20.175781 22.265625 19.957031 C 16.5625 19.777344 11.355469 18.699219 6.648438 16.71875 L 14.121094 -1.023438 L 7.257812 16.960938 C 1.984375 14.949219 -2.417969 12.0625 -5.953125 8.296875 L 8.078125 -4.882812 L -5.550781 8.714844 C -9.246094 5.011719 -11.933594 0.730469 -13.613281 -4.136719 L 4.582031 -10.421875 L -13.339844 -3.394531 C -15.117188 -7.929688 -15.929688 -12.636719 -15.777344 -17.515625 Z M 22.707031 -16.3125 C 22.71875 -16.695312 22.652344 -17.074219 22.503906 -17.449219 L 22.648438 -17.082031 L 22.777344 -16.707031 C 22.53125 -17.417969 22.175781 -18.011719 21.703125 -18.480469 L 21.910156 -18.273438 L 22.109375 -18.0625 C 21.769531 -18.425781 21.425781 -18.714844 21.082031 -18.933594 C 21.003906 -18.988281 20.933594 -19.027344 20.878906 -19.054688 C 20.894531 -19.046875 20.929688 -19.03125 20.984375 -19.011719 L 21.289062 -18.894531 L 21.589844 -18.769531 C 21.902344 -18.636719 22.53125 -18.554688 23.472656 -18.523438 C 25.375 -18.464844 27.550781 -18.886719 29.992188 -19.785156 C 32.296875 -20.605469 34.300781 -21.746094 36.007812 -23.210938 L 67.296875 -50.070312 L 67.921875 1.289062 L 48.671875 1.523438 L 49.273438 -17.71875 L 71.703125 -17.015625 L 71.101562 2.226562 L 51.867188 1.425781 L 54.832031 -69.796875 L 74.066406 -68.996094 L 72.597656 -49.804688 L 53.0625 -51.296875 C 47.164062 -51.769531 40.335938 -52.222656 32.582031 -52.65625 C 24.660156 -53.097656 16.25 -53.507812 7.347656 -53.882812 L 8.160156 -73.117188 L 27.402344 -72.515625 L 26.429688 -41.433594 L 7.1875 -42.039062 L 6.121094 -61.257812 L 69.421875 -64.761719 L 67.277344 3.71875 L 41.128906 -7.867188 C 38.839844 -8.882812 35.835938 -9.925781 32.117188 -11 L 37.464844 -29.496094 L 32.578125 -10.875 C 29.324219 -11.730469 26.078125 -12.207031 22.835938 -12.308594 C 21.519531 -12.347656 20.332031 -12.277344 19.273438 -12.089844 L 19.273438 -12.101562 C 19.460938 -12.171875 19.664062 -12.273438 19.878906 -12.40625 C 20.746094 -12.949219 21.414062 -13.609375 21.875 -14.390625 C 22.25 -15.023438 22.511719 -15.628906 22.65625 -16.210938 C 22.6875 -16.332031 22.707031 -16.429688 22.71875 -16.503906 C 22.714844 -16.46875 22.710938 -16.40625 22.707031 -16.3125 Z M 41.59375 -14.984375 C 41.667969 -17.339844 41.144531 -19.640625 40.023438 -21.890625 C 38.703125 -24.535156 36.816406 -26.609375 34.355469 -28.121094 L 34.785156 -27.855469 L 35.199219 -27.574219 C 34.09375 -28.332031 32.949219 -28.875 31.769531 -29.203125 C 31.183594 -29.363281 30.683594 -29.453125 30.273438 -29.464844 C 28.417969 -29.523438 26.707031 -29.191406 25.148438 -28.472656 L 25.472656 -28.621094 L 25.800781 -28.757812 L 25.808594 -28.765625 C 25.867188 -28.800781 25.988281 -28.910156 26.179688 -29.085938 L 39.359375 -15.054688 L 25.328125 -1.875 C 24.867188 -2.367188 24.429688 -2.785156 24.019531 -3.136719 L 36.507812 -17.785156 L 24.980469 -2.367188 C 24.597656 -2.65625 24.1875 -2.925781 23.746094 -3.183594 L 33.492188 -19.789062 L 25.535156 -2.257812 C 26.714844 -1.722656 28 -1.433594 29.390625 -1.390625 C 29.804688 -1.378906 30.308594 -1.433594 30.90625 -1.558594 C 32.101562 -1.808594 33.277344 -2.28125 34.425781 -2.972656 L 24.53125 -19.480469 L 35.222656 -3.472656 C 37.089844 -4.722656 38.597656 -6.371094 39.742188 -8.414062 C 40.90625 -10.5 41.523438 -12.6875 41.59375 -14.984375 Z M 3.113281 -16.191406 C 3.234375 -20.148438 4.242188 -23.820312 6.132812 -27.199219 C 8 -30.542969 10.570312 -33.308594 13.835938 -35.488281 L 14.226562 -35.75 L 14.632812 -35.992188 C 19.261719 -38.769531 24.582031 -40.0625 30.597656 -39.875 C 34.335938 -39.757812 37.953125 -38.90625 41.449219 -37.316406 L 42.363281 -36.902344 L 43.234375 -36.390625 C 44.90625 -35.410156 46.507812 -34.347656 48.039062 -33.203125 L 48.53125 -32.835938 L 49 -32.433594 C 50.492188 -31.160156 51.957031 -29.761719 53.390625 -28.234375 L 66.570312 -14.203125 L 52.539062 -1.023438 C 50.710938 0.691406 48.828125 2.183594 46.890625 3.453125 C 44.898438 4.753906 42.8125 5.863281 40.628906 6.773438 L 33.214844 -10.992188 L 41.28125 6.488281 C 37.339844 8.304688 33.265625 9.148438 29.066406 9.019531 C 23.050781 8.828125 17.820312 7.207031 13.375 4.148438 L 24.285156 -11.710938 L 14.214844 4.695312 C 10.414062 2.359375 7.53125 -0.773438 5.566406 -4.707031 C 3.800781 -8.25 2.984375 -12.078125 3.113281 -16.191406 Z M 3.113281 -16.191406 "/></g></g></g><g clip-path="url(#03454fea05)"><g fill="#ffffff" fill-opacity="1"><g transform="translate(305.530897, 125.339895)"><g><path d="M -13.667969 -41.027344 C -12.863281 -46.722656 -11.59375 -52.195312 -9.855469 -57.445312 C -7.675781 -64.03125 -4.449219 -69.789062 -0.175781 -74.722656 C 4.710938 -80.359375 10.886719 -84.433594 18.355469 -86.9375 C 25.207031 -89.316406 33.265625 -89.855469 42.53125 -88.550781 C 47.296875 -87.878906 51.453125 -86.699219 54.996094 -85.003906 C 58.5 -83.328125 61.535156 -81.3125 64.09375 -78.949219 L 64.449219 -78.621094 L 64.789062 -78.277344 C 67.136719 -75.878906 69.089844 -73.269531 70.644531 -70.449219 L 71.070312 -69.671875 L 71.425781 -68.863281 C 72.25 -66.976562 72.992188 -65.042969 73.660156 -63.054688 L 55.410156 -56.929688 L 58.09375 -75.992188 L 59.109375 -75.847656 L 56.425781 -56.785156 L 37.3125 -59.089844 L 43.933594 -114.015625 L 112.179688 -108.53125 L 99.867188 -21.046875 C 99.167969 -16.0625 98.582031 -11.558594 98.109375 -7.527344 L 98.082031 -7.304688 L 98.050781 -7.085938 C 97.492188 -3.121094 97.054688 0.320312 96.738281 3.230469 L 93.507812 32.601562 L 27.777344 23.351562 L 36.660156 -13.855469 L 55.382812 -9.386719 L 73.671875 -3.378906 C 71.527344 3.152344 68.425781 8.480469 64.367188 12.617188 C 60.359375 16.640625 56.023438 19.582031 51.359375 21.441406 C 46.886719 23.222656 42.386719 24.121094 37.863281 24.128906 L 37.824219 4.878906 L 38.59375 24.113281 C 35.253906 24.25 32.285156 24.132812 29.683594 23.765625 L 24.558594 23.046875 L 21.761719 21.652344 C 23.347656 22.445312 25.078125 22.96875 26.945312 23.234375 C 18.425781 22.035156 11.230469 19.21875 5.363281 14.785156 C -0.0351562 10.890625 -4.296875 6.039062 -7.414062 0.234375 L 9.542969 -8.875 L -7.058594 0.867188 C -9.976562 -4.105469 -11.996094 -9.371094 -13.121094 -14.929688 C -14.808594 -22.933594 -14.988281 -31.632812 -13.667969 -41.027344 Z M 24.460938 -35.660156 C 23.765625 -30.726562 23.816406 -26.355469 24.617188 -22.558594 C 24.890625 -21.203125 25.402344 -19.890625 26.148438 -18.621094 L 26.332031 -18.308594 L 26.503906 -17.988281 C 26.828125 -17.382812 27.515625 -16.699219 28.570312 -15.9375 C 28.6875 -15.84375 28.929688 -15.730469 29.296875 -15.59375 C 30.085938 -15.296875 31.09375 -15.066406 32.3125 -14.894531 C 34.566406 -14.574219 36.765625 -13.882812 38.910156 -12.820312 L 30.335938 4.417969 L 33.019531 -14.644531 L 35.050781 -14.359375 C 35.359375 -14.316406 36.023438 -14.316406 37.054688 -14.355469 L 37.417969 -14.371094 L 37.785156 -14.371094 C 37.527344 -14.371094 37.296875 -14.351562 37.097656 -14.308594 L 37.101562 -14.324219 C 36.847656 -14.222656 36.652344 -14.125 36.519531 -14.03125 C 36.625 -14.105469 36.75 -14.214844 36.894531 -14.359375 C 36.667969 -14.128906 36.527344 -13.96875 36.480469 -13.882812 C 36.671875 -14.222656 36.875 -14.726562 37.09375 -15.394531 L 74.109375 -4.914062 L 70.140625 11.707031 L 51.414062 7.238281 L 54.097656 -11.828125 L 79.226562 -8.289062 L 76.542969 10.773438 L 57.40625 8.667969 L 58.460938 -0.941406 C 58.824219 -4.25 59.3125 -8.089844 59.925781 -12.449219 L 78.988281 -9.765625 L 59.867188 -12.007812 C 60.375 -16.332031 61 -21.132812 61.742188 -26.414062 L 71.207031 -93.660156 L 90.269531 -90.976562 L 88.726562 -71.789062 L 59.289062 -74.152344 L 60.832031 -93.34375 L 79.945312 -91.039062 L 73.191406 -34.984375 L 40.945312 -39.523438 L 37.160156 -50.804688 C 36.851562 -51.71875 36.511719 -52.601562 36.140625 -53.449219 L 53.785156 -61.15625 L 36.921875 -51.867188 C 37.0625 -51.613281 37.183594 -51.433594 37.289062 -51.328125 L 51.039062 -64.800781 L 37.980469 -50.65625 C 38.203125 -50.449219 38.402344 -50.289062 38.578125 -50.175781 L 38.59375 -50.164062 C 38.542969 -50.195312 38.476562 -50.226562 38.398438 -50.265625 C 38.535156 -50.199219 38.652344 -50.148438 38.75 -50.113281 C 38.71875 -50.121094 38.683594 -50.132812 38.640625 -50.144531 C 38.269531 -50.246094 37.777344 -50.339844 37.164062 -50.425781 C 35.289062 -50.6875 33.6875 -50.785156 32.359375 -50.714844 C 31.617188 -50.679688 31.03125 -50.585938 30.605469 -50.4375 C 29.78125 -50.160156 29.21875 -49.847656 28.917969 -49.503906 C 28.003906 -48.449219 27.261719 -47.0625 26.695312 -45.347656 C 25.683594 -42.292969 24.9375 -39.066406 24.460938 -35.660156 Z M 51.957031 -28.976562 C 51.546875 -26.046875 51.238281 -23.542969 51.03125 -21.472656 C 51.019531 -21.34375 51.011719 -21.242188 51.011719 -21.160156 C 51.011719 -21.148438 51.011719 -21.140625 51.011719 -21.140625 C 51.011719 -21.164062 51.007812 -21.1875 51.007812 -21.222656 C 50.984375 -21.609375 50.902344 -22.058594 50.757812 -22.570312 L 50.898438 -22.070312 L 51.011719 -21.566406 C 50.71875 -22.878906 50.199219 -24.132812 49.457031 -25.332031 C 48.640625 -26.652344 47.628906 -27.777344 46.421875 -28.710938 C 45.398438 -29.503906 44.375 -30.082031 43.347656 -30.441406 C 43.148438 -30.511719 42.976562 -30.5625 42.835938 -30.59375 L 42.824219 -30.597656 C 42.859375 -30.589844 42.90625 -30.582031 42.960938 -30.574219 C 43.128906 -30.550781 43.253906 -30.539062 43.34375 -30.53125 C 43.285156 -30.535156 43.195312 -30.535156 43.066406 -30.53125 C 42.15625 -30.488281 41.164062 -30.273438 40.085938 -29.878906 C 37.460938 -28.921875 35.425781 -27.269531 33.984375 -24.929688 L 50.375 -14.832031 L 33.464844 -24.039062 C 33.296875 -23.722656 33.179688 -23.46875 33.117188 -23.277344 C 33.160156 -23.417969 33.214844 -23.648438 33.273438 -23.972656 C 33.648438 -26.019531 34.042969 -28.507812 34.457031 -31.4375 L 35.4375 -38.410156 C 35.492188 -38.820312 35.53125 -39.160156 35.542969 -39.425781 C 35.546875 -39.484375 35.546875 -39.523438 35.546875 -39.546875 C 35.546875 -39.5 35.550781 -39.4375 35.558594 -39.355469 C 35.820312 -36.324219 36.96875 -33.628906 38.996094 -31.277344 L 53.570312 -43.855469 L 40.761719 -29.484375 C 42.160156 -28.242188 43.660156 -27.316406 45.273438 -26.714844 C 45.960938 -26.457031 46.566406 -26.292969 47.089844 -26.21875 C 46.875 -26.246094 46.257812 -26.257812 45.238281 -26.25 C 44.441406 -26.238281 43.761719 -26.210938 43.203125 -26.164062 C 43.03125 -26.152344 42.890625 -26.136719 42.789062 -26.125 C 42.835938 -26.132812 42.890625 -26.140625 42.953125 -26.15625 C 44.144531 -26.398438 45.324219 -26.84375 46.488281 -27.488281 C 48.15625 -28.40625 49.601562 -29.621094 50.824219 -31.132812 L 50.664062 -30.933594 L 50.5 -30.742188 C 51.847656 -32.324219 52.679688 -33.894531 52.988281 -35.453125 C 52.703125 -33.996094 52.359375 -31.835938 51.957031 -28.976562 Z M 13.832031 -34.34375 C 14.328125 -37.871094 14.789062 -40.734375 15.21875 -42.925781 C 16.210938 -47.945312 18.210938 -52.21875 21.214844 -55.738281 L 35.855469 -43.238281 L 20.890625 -55.347656 C 24.496094 -59.804688 29.261719 -62.644531 35.183594 -63.863281 C 37.808594 -64.40625 41.042969 -64.699219 44.886719 -64.75 C 47.824219 -64.777344 50.34375 -64.640625 52.453125 -64.34375 C 58.046875 -63.558594 62.6875 -61.519531 66.378906 -58.230469 L 67.320312 -57.390625 L 68.144531 -56.4375 C 71.53125 -52.511719 73.472656 -47.730469 73.960938 -42.097656 C 74.15625 -39.34375 74.023438 -36.328125 73.5625 -33.046875 L 72.582031 -26.074219 C 72.09375 -22.613281 71.613281 -19.597656 71.144531 -17.023438 C 70.347656 -12.695312 69.0625 -8.894531 67.28125 -5.625 L 67.035156 -5.171875 L 66.761719 -4.734375 C 63.53125 0.515625 59.039062 4.1875 53.292969 6.289062 C 48.714844 7.957031 43.484375 8.378906 37.597656 7.550781 C 31.703125 6.722656 26.785156 4.78125 22.84375 1.726562 C 17.9375 -2.074219 14.796875 -7.050781 13.425781 -13.207031 L 32.21875 -17.386719 L 13.679688 -12.203125 C 12.570312 -16.167969 12.25 -20.515625 12.714844 -25.246094 C 12.972656 -27.851562 13.34375 -30.882812 13.832031 -34.34375 Z M 13.832031 -34.34375 "/></g></g></g></g><g fill="#ffffff" fill-opacity="1"><g transform="translate(381.209617, 135.931375)"><g><path d="M -11.636719 -20.503906 C -10.105469 -26.542969 -7.453125 -31.582031 -3.679688 -35.621094 C -0.0117188 -39.546875 4.300781 -42.386719 9.253906 -44.136719 C 13.59375 -45.671875 18.199219 -46.332031 23.078125 -46.125 C 26.796875 -45.964844 30.574219 -45.398438 34.414062 -44.421875 C 40.371094 -42.914062 46.140625 -40.726562 51.714844 -37.871094 L 51.929688 -37.761719 L 52.136719 -37.648438 C 57.070312 -34.960938 61.25 -32.359375 64.671875 -29.84375 L 53.265625 -14.335938 L 34.605469 -19.066406 L 39.257812 -37.40625 L 57.917969 -32.675781 L 54.816406 -13.675781 L -7.75 -23.886719 L 9.835938 -93.242188 L 28.648438 -88.253906 C 37.425781 -85.925781 45.71875 -83.667969 53.527344 -81.484375 C 61.308594 -79.304688 68.171875 -77.308594 74.121094 -75.488281 L 110.550781 -64.480469 L 82.691406 40.828125 L 24.601562 26.097656 L 30.414062 -1.867188 L 49.261719 2.050781 L 58.363281 19.015625 C 52.171875 22.335938 45.496094 24.445312 38.335938 25.339844 C 31.09375 26.332031 24.132812 25.980469 17.445312 24.285156 C 11.914062 22.882812 7.0625 20.707031 2.894531 17.757812 L 14.007812 2.039062 L 3.433594 18.125 C -1.28125 15.027344 -4.960938 11.257812 -7.601562 6.820312 L 8.9375 -3.027344 L -7.296875 7.316406 C -10.105469 2.902344 -11.808594 -1.859375 -12.402344 -6.96875 L 6.71875 -9.191406 L -12.296875 -6.1875 C -13.054688 -11 -12.835938 -15.769531 -11.636719 -20.503906 Z M 25.6875 -11.039062 C 25.78125 -11.414062 25.796875 -11.796875 25.734375 -12.191406 L 25.796875 -11.804688 L 25.839844 -11.414062 C 25.753906 -12.160156 25.53125 -12.8125 25.175781 -13.375 L 25.332031 -13.128906 L 25.480469 -12.878906 C 25.226562 -13.304688 24.953125 -13.664062 24.667969 -13.949219 C 24.597656 -14.019531 24.539062 -14.070312 24.492188 -14.109375 C 24.507812 -14.097656 24.535156 -14.078125 24.585938 -14.046875 L 24.859375 -13.867188 L 25.125 -13.679688 C 25.402344 -13.480469 25.996094 -13.269531 26.910156 -13.035156 C 28.757812 -12.570312 30.96875 -12.511719 33.550781 -12.863281 C 35.976562 -13.167969 38.179688 -13.851562 40.164062 -14.914062 L 76.5 -34.402344 L 66.050781 15.886719 L 47.203125 11.96875 L 51.933594 -6.691406 L 73.683594 -1.175781 L 68.953125 17.484375 L 50.34375 12.5625 L 68.574219 -56.355469 L 87.183594 -51.429688 L 81.617188 -33.003906 L 62.863281 -38.667969 C 57.207031 -40.398438 50.636719 -42.3125 43.15625 -44.40625 C 35.515625 -46.542969 27.390625 -48.753906 18.777344 -51.035156 L 23.710938 -69.644531 L 42.371094 -64.914062 L 34.730469 -34.773438 L 16.070312 -39.503906 L 19.171875 -58.503906 L 81.738281 -48.292969 L 64.898438 18.121094 L 41.859375 1.171875 C 39.839844 -0.3125 37.132812 -1.976562 33.734375 -3.828125 L 42.9375 -20.738281 L 34.15625 -3.605469 C 31.160156 -5.140625 28.09375 -6.304688 24.953125 -7.101562 C 23.675781 -7.425781 22.5 -7.609375 21.425781 -7.65625 L 21.425781 -7.667969 C 21.625 -7.695312 21.84375 -7.75 22.082031 -7.835938 C 23.046875 -8.175781 23.84375 -8.679688 24.460938 -9.34375 C 24.964844 -9.878906 25.347656 -10.417969 25.617188 -10.949219 C 25.671875 -11.0625 25.710938 -11.152344 25.738281 -11.226562 C 25.726562 -11.191406 25.707031 -11.128906 25.6875 -11.039062 Z M 43.847656 -5.675781 C 44.425781 -7.960938 44.410156 -10.320312 43.796875 -12.761719 C 43.078125 -15.625 41.683594 -18.058594 39.605469 -20.0625 L 39.964844 -19.714844 L 40.308594 -19.347656 C 39.394531 -20.328125 38.394531 -21.101562 37.3125 -21.675781 C 36.777344 -21.960938 36.308594 -22.152344 35.90625 -22.253906 C 34.105469 -22.710938 32.367188 -22.757812 30.691406 -22.390625 L 31.039062 -22.464844 L 31.390625 -22.527344 L 31.394531 -22.53125 C 31.460938 -22.558594 31.605469 -22.636719 31.828125 -22.769531 L 41.675781 -6.226562 L 25.136719 3.621094 C 24.792969 3.042969 24.457031 2.539062 24.128906 2.109375 L 39.484375 -9.507812 L 24.90625 3.066406 C 24.59375 2.703125 24.25 2.351562 23.875 2.003906 L 36.964844 -12.113281 L 25.421875 3.292969 C 26.457031 4.070312 27.652344 4.628906 29.003906 4.972656 C 29.402344 5.074219 29.90625 5.125 30.515625 5.132812 C 31.738281 5.144531 32.988281 4.9375 34.257812 4.511719 L 28.148438 -13.742188 L 35.144531 4.191406 C 37.238281 3.375 39.0625 2.089844 40.621094 0.339844 C 42.207031 -1.445312 43.28125 -3.449219 43.847656 -5.675781 Z M 6.523438 -15.140625 C 7.5 -18.980469 9.273438 -22.347656 11.84375 -25.242188 C 14.390625 -28.105469 17.492188 -30.25 21.152344 -31.679688 L 21.59375 -31.847656 L 22.039062 -32 C 27.15625 -33.710938 32.632812 -33.828125 38.464844 -32.347656 C 42.089844 -31.429688 45.441406 -29.820312 48.511719 -27.519531 L 49.316406 -26.914062 L 50.054688 -26.230469 C 51.480469 -24.910156 52.8125 -23.527344 54.058594 -22.082031 L 54.464844 -21.613281 L 54.835938 -21.125 C 56.019531 -19.558594 57.148438 -17.875 58.21875 -16.078125 L 68.066406 0.464844 L 51.527344 10.3125 C 49.371094 11.59375 47.210938 12.648438 45.046875 13.46875 C 42.820312 14.3125 40.546875 14.945312 38.21875 15.363281 L 34.804688 -3.582031 L 38.914062 15.222656 C 34.675781 16.152344 30.515625 16.097656 26.441406 15.066406 C 20.609375 13.585938 15.851562 10.875 12.167969 6.929688 L 26.238281 -6.207031 L 12.871094 7.644531 C 9.660156 4.546875 7.519531 0.867188 6.449219 -3.398438 C 5.488281 -7.238281 5.511719 -11.152344 6.523438 -15.140625 Z M 6.523438 -15.140625 "/></g></g></g><g fill="#4a7aa7" fill-opacity="1"><g transform="translate(47.29792, 154.067949)"><g><path d="M 43.296875 -6.96875 C 37.316406 -5.507812 32.003906 -5.015625 27.359375 -5.484375 C 22.703125 -5.960938 18.578125 -7.164062 14.984375 -9.09375 C 11.410156 -10.9375 8.335938 -13.410156 5.765625 -16.515625 C 3.109375 -19.585938 0.800781 -23.046875 -1.15625 -26.890625 C -3.082031 -30.648438 -4.707031 -34.628906 -6.03125 -38.828125 C -7.363281 -43.046875 -8.539062 -47.242188 -9.5625 -51.421875 C -10.582031 -55.597656 -11.5 -59.75 -12.3125 -63.875 C -13.195312 -67.882812 -13.710938 -71.835938 -13.859375 -75.734375 C -13.992188 -79.523438 -13.628906 -83.1875 -12.765625 -86.71875 C -12.015625 -90.226562 -10.460938 -93.53125 -8.109375 -96.625 C -5.742188 -99.707031 -2.503906 -102.507812 1.609375 -105.03125 C 5.722656 -107.550781 11.023438 -109.753906 17.515625 -111.640625 L 19.796875 -112.203125 C 25.203125 -113.523438 30.015625 -114.003906 34.234375 -113.640625 C 38.472656 -113.160156 42.257812 -112.070312 45.59375 -110.375 C 48.84375 -108.65625 51.707031 -106.441406 54.1875 -103.734375 C 56.59375 -100.898438 58.695312 -97.835938 60.5 -94.546875 C 62.238281 -91.148438 63.75 -87.644531 65.03125 -84.03125 C 66.25 -80.300781 67.300781 -76.632812 68.1875 -73.03125 L 42.078125 -62.546875 C 41.515625 -64.816406 40.867188 -67.023438 40.140625 -69.171875 C 39.316406 -71.285156 38.351562 -73.160156 37.25 -74.796875 C 36.144531 -76.453125 34.882812 -77.703125 33.46875 -78.546875 C 32.0625 -79.316406 30.457031 -79.484375 28.65625 -79.046875 L 27.390625 -78.734375 C 27.003906 -78.640625 26.597656 -78.441406 26.171875 -78.140625 C 23.648438 -76.910156 21.828125 -75.707031 20.703125 -74.53125 C 19.515625 -73.226562 18.804688 -71.597656 18.578125 -69.640625 C 18.359375 -67.660156 18.566406 -65.1875 19.203125 -62.21875 C 19.828125 -59.257812 20.71875 -55.40625 21.875 -50.65625 C 22.90625 -46.476562 23.835938 -42.882812 24.671875 -39.875 C 25.503906 -36.84375 26.492188 -34.414062 27.640625 -32.59375 C 28.804688 -30.757812 30.210938 -29.539062 31.859375 -28.9375 C 33.429688 -28.3125 35.546875 -28.328125 38.203125 -28.984375 C 42.003906 -29.910156 44.46875 -31.367188 45.59375 -33.359375 C 46.738281 -35.242188 47.0625 -38.046875 46.5625 -41.765625 L 46.53125 -41.90625 L 35.46875 -38.28125 C 35.5 -38.175781 35.484375 -38.242188 35.421875 -38.484375 C 35.367188 -38.722656 35.296875 -39.035156 35.203125 -39.421875 L 34.4375 -42.546875 L 33.453125 -46.546875 L 32.609375 -49.96875 L 40.640625 -52.375 L 59.046875 -58.546875 L 70.671875 -62.921875 C 71.617188 -59.023438 72.414062 -55.140625 73.0625 -51.265625 C 73.707031 -47.390625 74.019531 -43.640625 74 -40.015625 C 74.007812 -36.296875 73.554688 -32.8125 72.640625 -29.5625 C 71.648438 -26.195312 69.984375 -23.125 67.640625 -20.34375 C 65.234375 -17.4375 62.09375 -14.851562 58.21875 -12.59375 C 54.257812 -10.3125 49.285156 -8.4375 43.296875 -6.96875 Z M 43.296875 -6.96875 "/></g></g></g><g fill="#4a7aa7" fill-opacity="1"><g transform="translate(127.481928, 134.505132)"><g><path d="M 68.71875 -39.921875 C 69.175781 -35.546875 69.265625 -31.316406 68.984375 -27.234375 C 68.628906 -23.054688 67.4375 -19.257812 65.40625 -15.84375 C 63.28125 -12.414062 60.050781 -9.492188 55.71875 -7.078125 C 51.320312 -4.535156 45.242188 -2.769531 37.484375 -1.78125 C 29.816406 -0.8125 23.601562 -1.164062 18.84375 -2.84375 C 14.007812 -4.488281 10.207031 -6.957031 7.4375 -10.25 C 4.550781 -13.4375 2.476562 -17.269531 1.21875 -21.75 C -0.0078125 -26.125 -0.910156 -30.585938 -1.484375 -35.140625 C -2.066406 -39.710938 -2.460938 -44.296875 -2.671875 -48.890625 C -2.835938 -53.410156 -2.097656 -57.695312 -0.453125 -61.75 C 1.222656 -65.695312 4.226562 -69.179688 8.5625 -72.203125 C 12.832031 -75.203125 19.15625 -77.429688 27.53125 -78.890625 L 30.015625 -79.203125 C 37.484375 -80.148438 43.5625 -79.644531 48.25 -77.6875 C 52.84375 -75.613281 56.550781 -72.78125 59.375 -69.1875 C 62.09375 -65.59375 64.078125 -61.601562 65.328125 -57.21875 C 66.585938 -52.757812 67.519531 -48.546875 68.125 -44.578125 L 24.375 -35.03125 C 24.789062 -31.71875 25.195312 -28.910156 25.59375 -26.609375 C 26 -24.191406 26.597656 -22.242188 27.390625 -20.765625 C 28.054688 -19.273438 29.066406 -18.269531 30.421875 -17.75 C 31.679688 -17.125 33.472656 -16.960938 35.796875 -17.265625 C 38.128906 -17.554688 39.882812 -18.125 41.0625 -18.96875 C 42.25 -19.707031 43.046875 -20.796875 43.453125 -22.234375 C 43.867188 -23.566406 44.003906 -25.207031 43.859375 -27.15625 C 43.710938 -29.101562 43.472656 -31.390625 43.140625 -34.015625 Z M 41.171875 -47.078125 L 41.03125 -47.0625 L 38.515625 -57.65625 C 38.035156 -59.082031 37.097656 -60.25 35.703125 -61.15625 C 34.304688 -62.0625 32.734375 -62.40625 30.984375 -62.1875 C 29.921875 -62.050781 28.828125 -61.765625 27.703125 -61.328125 C 26.566406 -60.878906 25.601562 -60.3125 24.8125 -59.625 C 23.90625 -58.925781 23.222656 -58.101562 22.765625 -57.15625 C 22.191406 -56.195312 21.984375 -55.085938 22.140625 -53.828125 L 23.359375 -43.03125 L 23.375 -42.875 L 41.03125 -47.0625 L 41.0625 -46.90625 Z M 41.171875 -47.078125 "/></g></g></g><g fill="#4a7aa7" fill-opacity="1"><g transform="translate(200.265967, 125.931318)"><g><path d="M 29.3125 -104.171875 L 30.328125 -1.421875 L 3.375 -0.15625 L -1.8125 -100.9375 Z M 29.3125 -104.171875 "/></g></g></g><g fill="#4a7aa7" fill-opacity="1"><g transform="translate(234.549353, 123.470959)"><g><path d="M 3.46875 -16.90625 C 3.5625 -19.84375 4.175781 -22.269531 5.3125 -24.1875 C 6.445312 -26.113281 7.910156 -27.632812 9.703125 -28.75 C 11.503906 -29.863281 13.582031 -30.628906 15.9375 -31.046875 C 18.300781 -31.460938 20.800781 -31.628906 23.4375 -31.546875 C 28.132812 -31.398438 32.804688 -30.71875 37.453125 -29.5 C 42.023438 -28.175781 45.847656 -26.832031 48.921875 -25.46875 L 49.515625 -44.390625 L 7.1875 -42.03125 L 8.15625 -73.109375 C 17.144531 -72.734375 25.644531 -72.320312 33.65625 -71.875 C 41.5625 -71.4375 48.539062 -70.972656 54.59375 -70.484375 C 61.625 -69.972656 68.117188 -69.476562 74.078125 -69 L 71.109375 2.21875 L 48.65625 1.53125 L 48.53125 -8.609375 C 45.03125 -5.585938 41.003906 -3.265625 36.453125 -1.640625 C 31.796875 0.0664062 27.265625 0.851562 22.859375 0.71875 C 19.535156 0.613281 16.625 0.03125 14.125 -1.03125 C 11.613281 -1.976562 9.597656 -3.265625 8.078125 -4.890625 C 6.460938 -6.503906 5.296875 -8.347656 4.578125 -10.421875 C 3.765625 -12.503906 3.394531 -14.664062 3.46875 -16.90625 Z M 22.359375 -15.578125 C 22.296875 -13.828125 22.9375 -12.539062 24.28125 -11.71875 C 25.613281 -10.789062 27.40625 -10.289062 29.65625 -10.21875 C 30.832031 -10.1875 32.019531 -10.445312 33.21875 -11 C 34.3125 -11.457031 35.359375 -12.007812 36.359375 -12.65625 C 37.359375 -13.3125 38.363281 -14.109375 39.375 -15.046875 C 38.425781 -16.054688 37.472656 -16.96875 36.515625 -17.78125 C 35.554688 -18.5 34.550781 -19.164062 33.5 -19.78125 C 32.332031 -20.3125 31.160156 -20.59375 29.984375 -20.625 C 27.734375 -20.695312 25.914062 -20.3125 24.53125 -19.46875 C 23.132812 -18.539062 22.410156 -17.242188 22.359375 -15.578125 Z M 22.359375 -15.578125 "/></g></g></g><g fill="#4a7aa7" fill-opacity="1"><g transform="translate(305.530897, 125.339895)"><g><path d="M 5.390625 -38.34375 C 6.035156 -42.882812 7.039062 -47.234375 8.40625 -51.390625 C 9.789062 -55.535156 11.78125 -59.109375 14.375 -62.109375 C 16.96875 -65.109375 20.335938 -67.296875 24.484375 -68.671875 C 28.523438 -70.085938 33.644531 -70.359375 39.84375 -69.484375 C 42.65625 -69.085938 44.9375 -68.472656 46.6875 -67.640625 C 48.445312 -66.804688 49.898438 -65.859375 51.046875 -64.796875 C 52.171875 -63.648438 53.082031 -62.4375 53.78125 -61.15625 C 54.375 -59.800781 54.921875 -58.390625 55.421875 -56.921875 L 56.4375 -56.78125 L 60.828125 -93.34375 L 90.265625 -90.984375 L 80.796875 -23.734375 C 80.078125 -18.597656 79.476562 -13.941406 79 -9.765625 C 78.40625 -5.597656 77.9375 -1.960938 77.59375 1.140625 C 77.195312 4.742188 76.847656 7.953125 76.546875 10.765625 L 51.421875 7.234375 L 55.390625 -9.390625 C 54.179688 -5.710938 52.597656 -2.875 50.640625 -0.875 C 48.554688 1.207031 46.421875 2.6875 44.234375 3.5625 C 42.035156 4.445312 39.898438 4.882812 37.828125 4.875 C 35.640625 4.957031 33.820312 4.898438 32.375 4.703125 L 30.34375 4.40625 C 30.0625 4.28125 29.820312 4.203125 29.625 4.171875 C 24.394531 3.429688 20.175781 1.847656 16.96875 -0.578125 C 13.738281 -2.898438 11.265625 -5.671875 9.546875 -8.890625 C 7.710938 -12.003906 6.445312 -15.289062 5.75 -18.75 C 4.507812 -24.65625 4.390625 -31.1875 5.390625 -38.34375 Z M 32.890625 -31.671875 C 32.429688 -28.472656 32.09375 -25.703125 31.875 -23.359375 C 31.632812 -21.015625 31.753906 -19.019531 32.234375 -17.375 C 32.585938 -15.75 33.390625 -14.457031 34.640625 -13.5 C 35.878906 -12.53125 37.757812 -11.867188 40.28125 -11.515625 C 43 -11.128906 45.132812 -11.222656 46.6875 -11.796875 C 48.25 -12.367188 49.476562 -13.378906 50.375 -14.828125 C 51.164062 -16.296875 51.773438 -18.1875 52.203125 -20.5 C 52.617188 -22.8125 53.054688 -25.566406 53.515625 -28.765625 L 54.484375 -35.71875 C 54.753906 -37.65625 54.847656 -39.328125 54.765625 -40.734375 C 54.648438 -42.035156 54.253906 -43.070312 53.578125 -43.84375 C 52.773438 -44.5625 51.503906 -45.046875 49.765625 -45.296875 C 48.609375 -45.453125 47.039062 -45.519531 45.0625 -45.5 C 42.488281 -45.46875 40.492188 -45.304688 39.078125 -45.015625 C 37.648438 -44.710938 36.578125 -44.117188 35.859375 -43.234375 C 35.023438 -42.265625 34.441406 -40.914062 34.109375 -39.1875 C 33.742188 -37.375 33.335938 -34.867188 32.890625 -31.671875 Z M 32.890625 -31.671875 "/></g></g></g><g fill="#4a7aa7" fill-opacity="1"><g transform="translate(381.209617, 135.931375)"><g><path d="M 7.03125 -15.78125 C 7.75 -18.625 8.867188 -20.851562 10.390625 -22.46875 C 11.910156 -24.101562 13.671875 -25.28125 15.671875 -26 C 17.660156 -26.695312 19.851562 -26.992188 22.25 -26.890625 C 24.65625 -26.785156 27.132812 -26.410156 29.6875 -25.765625 C 34.238281 -24.609375 38.648438 -22.9375 42.921875 -20.75 C 47.097656 -18.46875 50.546875 -16.328125 53.265625 -14.328125 L 57.921875 -32.671875 L 16.046875 -39.5 L 23.6875 -69.640625 C 32.394531 -67.328125 40.613281 -65.09375 48.34375 -62.9375 C 55.96875 -60.800781 62.679688 -58.84375 68.484375 -57.0625 C 75.234375 -55.050781 81.46875 -53.171875 87.1875 -51.421875 L 68.953125 17.484375 L 47.1875 11.96875 L 49.25 2.046875 C 45.164062 4.242188 40.734375 5.640625 35.953125 6.234375 C 31.035156 6.910156 26.441406 6.707031 22.171875 5.625 C 18.953125 4.800781 16.226562 3.601562 14 2.03125 C 11.757812 0.550781 10.070312 -1.132812 8.9375 -3.03125 C 7.707031 -4.957031 6.96875 -7.007812 6.71875 -9.1875 C 6.375 -11.394531 6.476562 -13.59375 7.03125 -15.78125 Z M 25.1875 -10.40625 C 24.757812 -8.695312 25.109375 -7.300781 26.234375 -6.21875 C 27.335938 -5.019531 28.976562 -4.144531 31.15625 -3.59375 C 32.300781 -3.300781 33.515625 -3.296875 34.796875 -3.578125 C 35.960938 -3.796875 37.101562 -4.113281 38.21875 -4.53125 C 39.34375 -4.957031 40.5 -5.519531 41.6875 -6.21875 C 40.976562 -7.414062 40.242188 -8.515625 39.484375 -9.515625 C 38.703125 -10.421875 37.863281 -11.285156 36.96875 -12.109375 C 35.945312 -12.878906 34.863281 -13.410156 33.71875 -13.703125 C 31.539062 -14.253906 29.679688 -14.265625 28.140625 -13.734375 C 26.578125 -13.128906 25.59375 -12.019531 25.1875 -10.40625 Z M 25.1875 -10.40625 "/></g></g></g></g></g><g fill="#ffffff" fill-opacity="1"><g transform="translate(578.864846, 396.000983)"><g><path d="M -15.425781 -79.113281 L 41.851562 -92.828125 L 51.433594 -48.632812 L 12.257812 -38.6875 L 9.089844 -51.171875 L 21.675781 -53.898438 L 23.796875 -44.117188 L 11.207031 -41.390625 L 7.378906 -53.6875 L 42.074219 -64.484375 L 51.507812 -20.976562 L 19.113281 -12.367188 L 15.804688 -24.8125 L 28.394531 -27.542969 L 35.550781 5.472656 L -7.941406 14.902344 L -27.6875 -76.179688 Z M -9.429688 -54.0625 L -12.429688 -66.589844 L 0.160156 -69.316406 L 14.503906 -3.144531 L 1.917969 -0.414062 L -0.8125 -13.003906 L 17.507812 -16.976562 L 20.234375 -4.386719 L 7.648438 -1.65625 L 0.613281 -34.105469 L 33.003906 -42.710938 L 36.3125 -30.265625 L 23.726562 -27.535156 L 19.878906 -45.277344 L 32.46875 -48.007812 L 36.296875 -35.707031 L 1.601562 -24.910156 L -6.132812 -60.597656 L 33.042969 -70.539062 L 36.210938 -58.054688 L 23.625 -55.328125 L 19.464844 -74.507812 L 32.054688 -77.238281 L 35.050781 -64.710938 Z M -9.429688 -54.0625 "/></g></g></g><g fill="#ffffff" fill-opacity="1"><g transform="translate(624.920644, 385.883232)"><g><path d="M -6.953125 -60.378906 L 23.933594 -67.203125 L 29.285156 -26.929688 C 29.519531 -25.398438 29.765625 -23.984375 30.019531 -22.6875 L 30.074219 -22.414062 L 30.117188 -22.136719 C 30.144531 -21.933594 30.175781 -21.789062 30.199219 -21.695312 C 30.167969 -21.804688 30.109375 -21.949219 30.019531 -22.136719 C 29.71875 -22.75 29.3125 -23.339844 28.800781 -23.902344 C 28.085938 -24.691406 27.242188 -25.335938 26.273438 -25.835938 L 26.867188 -25.527344 L 27.429688 -25.160156 C 26.1875 -25.976562 24.867188 -26.484375 23.464844 -26.683594 C 22.726562 -26.789062 22.054688 -26.796875 21.457031 -26.703125 C 20.207031 -26.515625 19.054688 -26.148438 18 -25.609375 L 19.859375 -26.5625 L 22.414062 -26.949219 L 24.34375 -14.214844 L 21.402344 -26.753906 C 21.476562 -26.769531 21.527344 -26.785156 21.554688 -26.792969 C 21.496094 -26.773438 21.414062 -26.742188 21.316406 -26.699219 C 20.738281 -26.449219 20.15625 -26.074219 19.5625 -25.578125 C 18.160156 -24.386719 17.253906 -22.925781 16.847656 -21.191406 L 16.882812 -21.34375 L 16.921875 -21.496094 C 16.8125 -21.066406 16.75 -20.691406 16.738281 -20.371094 C 16.738281 -20.347656 16.738281 -20.324219 16.738281 -20.308594 C 16.738281 -20.3125 16.738281 -20.316406 16.738281 -20.328125 C 16.734375 -20.390625 16.726562 -20.472656 16.714844 -20.570312 L 29.523438 -21.949219 L 16.789062 -20.015625 L 16.007812 -25.15625 L 10.246094 -62.164062 L 52.542969 -71.527344 L 58.5625 -32.855469 C 59.132812 -29.101562 59.453125 -25.429688 59.53125 -21.835938 C 59.648438 -16.804688 58.710938 -12.082031 56.710938 -7.667969 C 54.480469 -2.734375 50.824219 1.371094 45.742188 4.648438 C 41.328125 7.601562 35.390625 9.644531 27.9375 10.773438 C 20.824219 11.855469 14.699219 11.5625 9.570312 9.902344 C 4.109375 8.183594 -0.371094 5.359375 -3.867188 1.421875 L 5.765625 -7.128906 L -3.589844 1.722656 C -6.941406 -1.820312 -9.367188 -6.035156 -10.871094 -10.921875 C -11.960938 -14.421875 -12.78125 -18.015625 -13.339844 -21.699219 L -18.667969 -57.789062 Z M -1.394531 -35.226562 L -4.175781 -47.800781 L 8.566406 -49.683594 L 12.128906 -25.5625 C 12.492188 -23.164062 13.03125 -20.808594 13.75 -18.496094 C 14.074219 -17.441406 14.535156 -16.605469 15.125 -15.976562 L 15.265625 -15.832031 L 15.398438 -15.679688 C 15.738281 -15.300781 16.4375 -14.941406 17.503906 -14.605469 C 17.949219 -14.460938 18.597656 -14.378906 19.460938 -14.351562 C 20.753906 -14.308594 22.292969 -14.425781 24.074219 -14.695312 C 26.136719 -15.007812 27.886719 -15.402344 29.324219 -15.875 C 30.339844 -16.214844 31.164062 -16.589844 31.785156 -17.003906 C 32.328125 -17.351562 32.738281 -17.683594 33.023438 -17.996094 C 33.140625 -18.121094 33.210938 -18.21875 33.242188 -18.285156 C 33.625 -19.128906 33.800781 -20.136719 33.773438 -21.300781 C 33.722656 -23.777344 33.5 -26.308594 33.109375 -28.890625 L 29.199219 -54.007812 L 41.925781 -55.988281 L 44.710938 -43.410156 L 27.617188 -39.628906 L 24.832031 -52.203125 L 37.5625 -54.183594 L 41.476562 -29.019531 L 42.300781 -23.601562 L 42.328125 -23.324219 C 42.65625 -20.265625 42.5 -17.496094 41.855469 -15.015625 L 29.386719 -18.253906 L 41.929688 -15.320312 C 41.042969 -11.527344 39.132812 -8.390625 36.203125 -5.910156 C 33.863281 -3.933594 30.890625 -2.519531 27.285156 -1.675781 L 26.785156 -1.558594 L 25.789062 -1.40625 L 23.859375 -14.140625 L 29.71875 -2.671875 C 28.292969 -1.941406 26.828125 -1.464844 25.320312 -1.234375 C 20.769531 -0.542969 16.75 -1.347656 13.261719 -3.644531 L 20.34375 -14.402344 L 14.417969 -2.964844 C 11.105469 -4.683594 8.585938 -7.3125 6.863281 -10.851562 C 5.808594 -13.015625 5.070312 -15.488281 4.644531 -18.273438 L 17.382812 -20.203125 L 4.742188 -17.722656 C 4.417969 -19.382812 4.085938 -21.320312 3.75 -23.539062 L 0.246094 -49.902344 L 13.015625 -51.601562 L 15.792969 -39.023438 Z M -1.394531 -35.226562 "/></g></g></g><g fill="#ffffff" fill-opacity="1"><g transform="translate(674.74479, 378.306011)"><g><path d="M 20.160156 -65.144531 C 25.253906 -65.59375 29.789062 -65.503906 33.765625 -64.875 C 38.878906 -63.957031 43.269531 -62.125 46.933594 -59.378906 C 50.796875 -56.484375 53.757812 -52.667969 55.816406 -47.925781 L 55.890625 -47.757812 L 55.957031 -47.589844 C 57.523438 -43.683594 58.542969 -39.078125 59.007812 -33.773438 L 59.3125 -30.351562 C 59.515625 -28.023438 59.453125 -25.652344 59.125 -23.234375 C 58.785156 -20.5625 58.042969 -17.910156 56.894531 -15.277344 C 55.5625 -12.054688 53.4375 -9.136719 50.527344 -6.523438 C 47.730469 -4.109375 44.382812 -2.160156 40.488281 -0.683594 C 36.902344 0.679688 32.625 1.582031 27.664062 2.019531 L 26.53125 -10.8125 L 39.410156 -10.722656 L 39.394531 -8.652344 L 26.515625 -8.742188 L 25.558594 -21.585938 C 31.246094 -22.011719 36.046875 -21.976562 39.960938 -21.480469 C 44.46875 -20.910156 48.269531 -19.847656 51.363281 -18.300781 L 51.625 -18.171875 L 51.882812 -18.027344 C 55.710938 -15.890625 58.609375 -13.082031 60.574219 -9.609375 L 60.742188 -9.308594 L 60.898438 -9 C 62.335938 -6.101562 63.199219 -3.03125 63.484375 0.210938 C 63.917969 5.101562 62.71875 9.671875 59.890625 13.925781 L 59.804688 14.054688 L 59.71875 14.179688 C 57.527344 17.308594 54.609375 20.050781 50.960938 22.40625 C 47.707031 24.507812 43.964844 26.199219 39.738281 27.476562 C 35.910156 28.71875 31.691406 29.542969 27.074219 29.949219 C 23.179688 30.292969 19.292969 30.199219 15.414062 29.671875 L 17.15625 16.910156 L 15.75 29.710938 C 11.570312 29.253906 7.734375 28.3125 4.242188 26.886719 L 9.101562 14.957031 L 4.515625 26.996094 C 0.605469 25.503906 -2.738281 23.488281 -5.515625 20.945312 C -7.4375 19.1875 -8.972656 17.199219 -10.109375 14.980469 C -11.316406 12.636719 -12.035156 10.136719 -12.269531 7.484375 C -12.5 4.859375 -12.308594 2.335938 -11.695312 -0.0859375 C -11.03125 -2.707031 -9.898438 -5.105469 -8.304688 -7.289062 C -6.011719 -10.429688 -3.085938 -13.03125 0.46875 -15.097656 C 3.425781 -16.816406 6.652344 -18.160156 10.15625 -19.128906 C 13.015625 -19.9375 15.824219 -20.542969 18.574219 -20.949219 L 20.457031 -8.207031 L 7.933594 -5.183594 L 7.46875 -7.113281 L 19.988281 -10.136719 L 21.121094 2.695312 C 16.535156 3.097656 12.480469 2.960938 8.964844 2.285156 L 11.398438 -10.363281 L 9.300781 2.34375 C 5.484375 1.714844 2.160156 0.605469 -0.671875 -0.980469 C -3.910156 -2.703125 -6.527344 -4.992188 -8.53125 -7.839844 C -10.054688 -10.003906 -11.234375 -12.296875 -12.070312 -14.714844 C -12.855469 -16.988281 -13.347656 -19.269531 -13.550781 -21.5625 L -13.820312 -24.589844 C -14.308594 -30.136719 -14.300781 -34.894531 -13.796875 -38.867188 C -13.132812 -43.929688 -11.550781 -48.285156 -9.054688 -51.933594 C -6.417969 -55.828125 -2.773438 -58.804688 1.871094 -60.867188 C 5.226562 -62.292969 9.152344 -63.410156 13.65625 -64.222656 L 15.941406 -51.546875 L 4.75 -45.171875 C 3.503906 -47.367188 2.441406 -49.730469 1.5625 -52.265625 L 13.734375 -56.476562 L 1.710938 -51.863281 C 0.597656 -54.765625 -0.0976562 -57.757812 -0.367188 -60.847656 C -0.605469 -63.550781 -0.234375 -66.152344 0.75 -68.648438 C 1.652344 -70.933594 3.011719 -72.976562 4.828125 -74.785156 C 6.921875 -76.847656 9.476562 -78.589844 12.488281 -80.015625 C 14.871094 -81.148438 17.480469 -82.101562 20.324219 -82.882812 C 22.785156 -83.554688 25.191406 -84.113281 27.546875 -84.554688 C 29.554688 -84.933594 31.449219 -85.273438 33.230469 -85.570312 L 33.460938 -85.609375 L 33.699219 -85.636719 C 35.492188 -85.867188 36.832031 -86.023438 37.71875 -86.101562 L 68.695312 -88.835938 L 48.722656 -65 C 50.347656 -66.9375 51.308594 -69.136719 51.601562 -71.589844 C 51.640625 -71.898438 51.664062 -72.175781 51.667969 -72.421875 C 51.667969 -72.378906 51.671875 -72.210938 51.679688 -71.921875 C 51.703125 -70.945312 51.746094 -69.773438 51.804688 -68.410156 L 51.816406 -68.144531 L 51.816406 -67.875 C 51.816406 -66.558594 51.847656 -65.214844 51.914062 -63.835938 C 51.992188 -62.171875 52.058594 -60.664062 52.109375 -59.3125 L 52.539062 -48.015625 L 28.949219 -44.019531 L 28.640625 -43.980469 C 27.910156 -43.894531 27.308594 -43.804688 26.839844 -43.710938 C 26.695312 -43.683594 26.578125 -43.660156 26.496094 -43.640625 C 26.523438 -43.644531 26.582031 -43.664062 26.667969 -43.695312 C 26.808594 -43.742188 27.015625 -43.839844 27.292969 -43.988281 C 28.421875 -44.59375 29.441406 -45.445312 30.355469 -46.535156 L 20.484375 -54.804688 L 31.0625 -47.460938 C 32.246094 -49.164062 32.917969 -51.078125 33.082031 -53.199219 C 33.28125 -55.785156 32.707031 -58.175781 31.359375 -60.367188 L 31.988281 -59.347656 L 32.417969 -58.230469 C 31.914062 -59.535156 31.207031 -60.636719 30.296875 -61.523438 L 21.292969 -52.316406 Z M 22.425781 -39.484375 L 16.523438 -38.964844 L 12.289062 -43.105469 C 10.515625 -44.839844 9.207031 -46.804688 8.363281 -49.003906 L 20.390625 -53.617188 L 9.421875 -46.867188 C 7.84375 -49.429688 7.167969 -52.203125 7.398438 -55.1875 C 7.59375 -57.707031 8.429688 -60.027344 9.902344 -62.148438 L 10.234375 -62.628906 L 10.609375 -63.078125 C 12.433594 -65.253906 14.980469 -66.910156 18.25 -68.039062 C 20.136719 -68.691406 22.582031 -69.199219 25.574219 -69.558594 L 27.105469 -56.769531 L 24.957031 -69.46875 L 37.089844 -71.523438 L 39.238281 -58.824219 L 26.367188 -58.335938 C 26.320312 -59.601562 26.257812 -61.039062 26.179688 -62.644531 C 26.097656 -64.40625 26.058594 -66.140625 26.054688 -67.84375 L 38.933594 -67.859375 L 26.066406 -67.3125 C 26.003906 -68.824219 25.957031 -70.140625 25.925781 -71.261719 C 25.90625 -72.023438 25.90625 -72.660156 25.921875 -73.171875 C 26.015625 -76.433594 27.035156 -79.222656 28.980469 -81.542969 L 38.851562 -73.273438 L 39.984375 -60.441406 C 39.4375 -60.394531 38.4375 -60.277344 36.984375 -60.089844 L 35.339844 -72.863281 L 37.453125 -60.15625 C 35.867188 -59.894531 34.140625 -59.585938 32.273438 -59.230469 C 30.621094 -58.921875 28.910156 -58.523438 27.140625 -58.039062 C 25.75 -57.65625 24.542969 -57.226562 23.523438 -56.738281 C 23.234375 -56.601562 23.007812 -56.480469 22.84375 -56.371094 C 22.816406 -56.355469 22.804688 -56.34375 22.804688 -56.34375 C 22.84375 -56.375 22.90625 -56.433594 22.992188 -56.519531 C 23.722656 -57.246094 24.296875 -58.140625 24.714844 -59.199219 C 25.21875 -60.472656 25.410156 -61.777344 25.292969 -63.109375 C 25.351562 -62.417969 25.507812 -61.746094 25.761719 -61.089844 L 25.835938 -60.890625 L 25.90625 -60.6875 C 26.265625 -59.652344 26.675781 -58.734375 27.136719 -57.921875 L 36.144531 -42.109375 L 18.230469 -38.875 C 15.621094 -38.402344 13.652344 -37.882812 12.320312 -37.320312 C 12.140625 -37.238281 12.023438 -37.179688 11.972656 -37.140625 C 12.0625 -37.210938 12.140625 -37.296875 12.210938 -37.398438 C 12.179688 -37.355469 12.140625 -37.253906 12.082031 -37.089844 C 11.941406 -36.691406 11.832031 -36.203125 11.757812 -35.625 C 11.488281 -33.484375 11.515625 -30.5625 11.84375 -26.855469 L 12.109375 -23.824219 C 12.125 -23.640625 12.179688 -23.410156 12.277344 -23.132812 C 12.320312 -23 12.410156 -22.84375 12.539062 -22.65625 C 12.308594 -22.988281 12.058594 -23.265625 11.800781 -23.484375 C 11.738281 -23.535156 11.683594 -23.578125 11.632812 -23.609375 C 11.636719 -23.609375 11.730469 -23.558594 11.914062 -23.457031 C 11.894531 -23.46875 11.878906 -23.476562 11.867188 -23.480469 C 11.871094 -23.480469 11.878906 -23.476562 11.886719 -23.472656 C 11.953125 -23.445312 12.039062 -23.414062 12.140625 -23.378906 C 12.503906 -23.265625 12.957031 -23.160156 13.5 -23.070312 L 13.667969 -23.042969 L 13.835938 -23.011719 C 14.992188 -22.789062 16.667969 -22.773438 18.859375 -22.96875 L 29.90625 -23.941406 L 36.285156 2.472656 L 22.339844 4.535156 C 20.679688 4.777344 18.910156 5.167969 17.03125 5.699219 C 15.660156 6.078125 14.453125 6.570312 13.410156 7.175781 C 12.96875 7.433594 12.664062 7.675781 12.496094 7.90625 C 12.863281 7.40625 13.121094 6.855469 13.273438 6.253906 C 13.375 5.847656 13.414062 5.503906 13.390625 5.222656 C 13.328125 4.523438 13.132812 3.851562 12.800781 3.203125 C 12.53125 2.679688 12.222656 2.257812 11.871094 1.9375 C 12.234375 2.269531 12.839844 2.601562 13.691406 2.921875 L 13.964844 3.03125 C 15.238281 3.550781 16.769531 3.910156 18.5625 4.105469 L 18.726562 4.125 L 18.894531 4.144531 C 20.863281 4.414062 22.835938 4.460938 24.808594 4.289062 C 27.492188 4.050781 29.984375 3.5625 32.289062 2.816406 C 34.199219 2.238281 35.765625 1.554688 36.984375 0.769531 C 37.808594 0.234375 38.351562 -0.21875 38.613281 -0.589844 L 49.164062 6.792969 L 38.441406 -0.335938 C 38.253906 -0.0546875 38.101562 0.300781 37.984375 0.730469 C 37.824219 1.304688 37.773438 1.886719 37.824219 2.476562 L 37.824219 2.457031 L 49.359375 -3.269531 L 38.148438 3.070312 C 38.410156 3.527344 38.707031 3.917969 39.046875 4.230469 C 39.183594 4.359375 39.277344 4.4375 39.324219 4.464844 L 45.601562 -6.78125 L 39.84375 4.738281 C 39.742188 4.6875 39.511719 4.613281 39.15625 4.519531 C 38.496094 4.347656 37.683594 4.199219 36.722656 4.074219 C 34.523438 3.796875 31.441406 3.804688 27.476562 4.101562 L 13.539062 5.140625 L 13.734375 -22.613281 L 25.398438 -23.644531 C 27.996094 -23.871094 29.976562 -24.246094 31.34375 -24.765625 C 32.40625 -25.167969 33.066406 -25.480469 33.320312 -25.695312 C 33.371094 -25.742188 33.410156 -25.78125 33.4375 -25.8125 C 33.441406 -25.816406 33.445312 -25.816406 33.445312 -25.816406 C 33.4375 -25.808594 33.429688 -25.800781 33.421875 -25.789062 C 33.339844 -25.675781 33.292969 -25.605469 33.285156 -25.578125 C 33.445312 -25.953125 33.550781 -26.328125 33.601562 -26.714844 C 33.671875 -27.222656 33.6875 -27.679688 33.652344 -28.089844 L 33.347656 -31.511719 C 33.105469 -34.285156 32.671875 -36.449219 32.050781 -37.996094 L 44.003906 -42.792969 L 32.1875 -37.664062 C 31.941406 -38.230469 31.710938 -38.597656 31.492188 -38.761719 C 31.078125 -39.070312 30.492188 -39.292969 29.734375 -39.433594 C 27.847656 -39.730469 25.414062 -39.75 22.425781 -39.484375 Z M 24.585938 -26.179688 L 23.898438 -26.121094 C 24.484375 -26.171875 25.027344 -26.269531 25.523438 -26.414062 L 24.816406 -26.207031 L 24.089844 -26.082031 C 23.949219 -26.058594 23.835938 -26.035156 23.742188 -26.015625 L 23.757812 -26.019531 C 24.191406 -26.15625 24.671875 -26.386719 25.195312 -26.710938 L 25.027344 -26.605469 L 24.851562 -26.507812 C 26.140625 -27.246094 27.199219 -28.371094 28.023438 -29.875 L 16.71875 -36.050781 L 28.304688 -30.421875 C 29.007812 -31.875 29.292969 -33.394531 29.152344 -34.980469 L 29.195312 -34.488281 L 29.203125 -33.996094 C 29.207031 -33.472656 29.246094 -32.820312 29.3125 -32.039062 C 29.472656 -30.234375 29.628906 -28.789062 29.777344 -27.703125 C 29.765625 -27.789062 29.726562 -27.9375 29.660156 -28.148438 C 29.453125 -28.792969 29.128906 -29.445312 28.695312 -30.101562 L 29.066406 -29.539062 L 29.378906 -28.941406 C 28.667969 -30.304688 27.679688 -31.453125 26.421875 -32.386719 C 25.238281 -33.265625 23.953125 -33.851562 22.5625 -34.148438 L 23.167969 -34.019531 L 23.757812 -33.832031 C 23.109375 -34.039062 22.527344 -34.15625 22.011719 -34.179688 C 21.980469 -34.183594 21.953125 -34.183594 21.933594 -34.183594 C 21.9375 -34.183594 21.945312 -34.183594 21.960938 -34.183594 C 22.050781 -34.1875 22.164062 -34.195312 22.300781 -34.207031 C 22.554688 -34.226562 22.710938 -34.246094 22.777344 -34.261719 C 22.390625 -34.175781 21.949219 -34.007812 21.441406 -33.761719 L 21.839844 -33.953125 L 22.25 -34.121094 C 21.042969 -33.632812 19.964844 -32.910156 19.019531 -31.960938 C 18.058594 -30.992188 17.328125 -29.886719 16.839844 -28.644531 L 16.925781 -28.859375 L 17.015625 -29.070312 C 16.703125 -28.347656 16.5 -27.648438 16.40625 -26.976562 C 16.378906 -26.757812 16.367188 -26.605469 16.367188 -26.519531 L 29.238281 -27.011719 L 16.410156 -25.878906 L 15.96875 -30.863281 C 15.855469 -32.144531 15.789062 -33.398438 15.769531 -34.625 L 28.648438 -34.839844 L 15.816406 -33.707031 C 15.871094 -33.113281 16.054688 -32.476562 16.371094 -31.800781 L 28.039062 -37.246094 L 16.546875 -31.433594 C 17.535156 -29.480469 18.988281 -28.039062 20.902344 -27.105469 C 21.921875 -26.613281 22.929688 -26.3125 23.921875 -26.210938 C 24.226562 -26.179688 24.449219 -26.167969 24.585938 -26.179688 Z M 22.320312 -51.839844 C 26.058594 -52.171875 29.339844 -51.648438 32.164062 -50.277344 C 35.453125 -48.675781 37.910156 -46.273438 39.53125 -43.0625 L 39.625 -42.882812 L 39.710938 -42.695312 C 40.675781 -40.632812 41.265625 -38.390625 41.476562 -35.96875 L 41.519531 -35.511719 L 41.527344 -35.054688 C 41.535156 -34.441406 41.570312 -33.800781 41.628906 -33.128906 L 42.097656 -27.820312 L 42.109375 -27.5 C 42.234375 -24.230469 41.742188 -21.320312 40.628906 -18.769531 L 28.824219 -23.917969 L 40.804688 -19.195312 C 39.992188 -17.136719 38.820312 -15.335938 37.28125 -13.789062 C 35.761719 -12.265625 33.988281 -11.085938 31.957031 -10.261719 L 27.101562 -22.191406 L 32.765625 -10.621094 C 30.515625 -9.519531 27.78125 -8.828125 24.5625 -8.542969 C 21.289062 -8.257812 18.425781 -8.5 15.980469 -9.273438 L 19.871094 -21.554688 L 17.179688 -8.957031 C 14.917969 -9.441406 12.878906 -10.355469 11.066406 -11.703125 C 9.171875 -13.109375 7.671875 -14.867188 6.5625 -16.984375 L 17.972656 -22.960938 L 7.25 -15.824219 C 5.707031 -18.140625 4.710938 -20.917969 4.261719 -24.160156 C 4.054688 -25.671875 3.851562 -27.542969 3.652344 -29.777344 C 3.527344 -31.214844 3.457031 -32.523438 3.441406 -33.707031 L 16.320312 -33.851562 L 3.492188 -32.71875 C 3.214844 -35.871094 3.761719 -38.859375 5.136719 -41.683594 L 5.269531 -41.957031 L 5.414062 -42.226562 C 6.917969 -44.976562 9.125 -47.1875 12.042969 -48.855469 L 18.445312 -37.683594 L 11.695312 -48.652344 C 13.851562 -49.980469 16.523438 -50.917969 19.703125 -51.464844 L 21.898438 -38.773438 L 18.269531 -51.132812 C 19.40625 -51.46875 20.527344 -51.683594 21.636719 -51.78125 Z M 25.304688 2.398438 C 25.441406 3.9375 25.859375 5.398438 26.550781 6.777344 C 27.109375 7.882812 27.8125 8.871094 28.667969 9.742188 C 29.617188 10.707031 30.65625 11.445312 31.785156 11.964844 C 32.167969 12.136719 32.5 12.261719 32.777344 12.332031 C 32.722656 12.316406 32.601562 12.296875 32.40625 12.265625 C 30.960938 12.046875 28.992188 12.046875 26.496094 12.265625 C 25.175781 12.382812 23.953125 12.542969 22.832031 12.738281 L 20.59375 0.0546875 L 23.375 12.632812 C 22.320312 12.863281 21.457031 13.09375 20.785156 13.3125 C 20.484375 13.410156 20.296875 13.472656 20.21875 13.507812 C 20.382812 13.4375 20.585938 13.328125 20.835938 13.175781 L 14.085938 2.207031 L 21.222656 12.925781 C 22.070312 12.363281 22.847656 11.621094 23.550781 10.699219 C 24.292969 9.730469 24.871094 8.664062 25.289062 7.492188 C 25.882812 5.828125 26.097656 4.109375 25.941406 2.339844 C 25.78125 0.5 25.230469 -1.214844 24.292969 -2.800781 C 23.597656 -3.976562 22.734375 -5 21.703125 -5.859375 C 20.703125 -6.699219 19.65625 -7.308594 18.5625 -7.695312 L 19.253906 -7.453125 L 19.914062 -7.128906 C 19.492188 -7.335938 19.105469 -7.484375 18.753906 -7.574219 C 18.703125 -7.589844 18.664062 -7.597656 18.640625 -7.601562 C 18.675781 -7.597656 18.722656 -7.589844 18.785156 -7.582031 C 19.40625 -7.492188 20.164062 -7.449219 21.050781 -7.449219 C 22.191406 -7.449219 23.421875 -7.507812 24.742188 -7.625 C 27.347656 -7.855469 29.394531 -8.203125 30.882812 -8.664062 C 30.984375 -8.695312 31.066406 -8.722656 31.132812 -8.746094 L 31.117188 -8.738281 C 30.785156 -8.59375 30.417969 -8.382812 30.015625 -8.105469 C 28.914062 -7.34375 27.972656 -6.363281 27.183594 -5.15625 C 25.6875 -2.871094 25.0625 -0.351562 25.304688 2.398438 Z M 50.96875 0.132812 C 51.246094 3.308594 50.507812 6.242188 48.746094 8.9375 C 47.691406 10.554688 46.324219 11.9375 44.652344 13.09375 C 43 14.234375 40.953125 15.183594 38.519531 15.9375 C 35.277344 16.945312 31.441406 17.644531 27.007812 18.035156 C 24.941406 18.21875 22.96875 18.308594 21.082031 18.3125 C 18.953125 18.3125 17.066406 18.195312 15.425781 17.960938 C 12.851562 17.621094 10.589844 16.980469 8.652344 16.039062 L 14.28125 4.453125 L 10.003906 16.601562 C 8.164062 15.953125 6.546875 15.046875 5.160156 13.882812 C 3.933594 12.859375 2.921875 11.667969 2.117188 10.3125 C 1.074219 8.546875 0.460938 6.644531 0.28125 4.605469 C 0.109375 2.640625 0.355469 0.722656 1.019531 -1.144531 C 1.507812 -2.519531 2.203125 -3.792969 3.105469 -4.972656 C 4.136719 -6.316406 5.417969 -7.5 6.945312 -8.515625 L 7.136719 -8.644531 L 7.335938 -8.765625 C 8.859375 -9.703125 10.648438 -10.496094 12.703125 -11.144531 C 14.203125 -11.640625 15.90625 -12.097656 17.8125 -12.519531 L 18.082031 -12.582031 L 18.355469 -12.628906 C 20.207031 -12.957031 22.167969 -13.210938 24.234375 -13.394531 C 28.777344 -13.792969 32.792969 -13.730469 36.273438 -13.203125 C 38.6875 -12.835938 40.761719 -12.257812 42.484375 -11.472656 C 44.25 -10.664062 45.769531 -9.609375 47.050781 -8.304688 C 48.074219 -7.265625 48.910156 -6.101562 49.558594 -4.8125 C 50.34375 -3.25 50.8125 -1.601562 50.96875 0.132812 Z M 50.96875 0.132812 "/></g></g></g><g fill="#ffffff" fill-opacity="1"><g transform="translate(721.171209, 374.120676)"><g><path d="M -11.222656 -11.082031 C -11.335938 -15.25 -10.546875 -18.976562 -8.851562 -22.265625 C -7.207031 -25.460938 -4.949219 -28.070312 -2.074219 -30.101562 C 0.4375 -31.878906 3.285156 -33.144531 6.464844 -33.894531 C 8.886719 -34.46875 11.421875 -34.792969 14.070312 -34.863281 C 18.179688 -34.976562 22.292969 -34.621094 26.402344 -33.792969 L 26.558594 -33.761719 L 26.714844 -33.726562 C 30.378906 -32.898438 33.542969 -31.984375 36.207031 -30.984375 L 31.683594 -18.925781 L 18.808594 -18.574219 L 18.464844 -31.226562 L 31.339844 -31.578125 L 32.800781 -18.78125 L -9.339844 -13.964844 L -10.640625 -61.820312 L 2.378906 -62.03125 C 8.457031 -62.132812 14.207031 -62.1875 19.628906 -62.203125 C 25.035156 -62.21875 29.816406 -62.179688 33.980469 -62.09375 L 59.4375 -61.636719 L 60.667969 11.234375 L 20.589844 12.324219 L 19.242188 -6.738281 L 32.089844 -7.644531 L 41.035156 1.621094 C 37.65625 4.882812 33.742188 7.457031 29.292969 9.335938 C 24.8125 11.292969 20.265625 12.332031 15.652344 12.460938 C 11.835938 12.5625 8.316406 12.046875 5.09375 10.90625 L 9.390625 -1.238281 L 5.507812 11.042969 C 1.910156 9.90625 -1.144531 8.152344 -3.652344 5.773438 L 5.203125 -3.578125 L -3.367188 6.039062 C -5.980469 3.710938 -7.941406 0.953125 -9.253906 -2.230469 L 2.652344 -7.140625 L -9.042969 -1.746094 C -10.40625 -4.703125 -11.132812 -7.816406 -11.222656 -11.082031 Z M 14.527344 -11.78125 C 14.519531 -12.039062 14.460938 -12.289062 14.347656 -12.535156 L 14.460938 -12.292969 L 14.558594 -12.050781 C 14.367188 -12.515625 14.105469 -12.898438 13.773438 -13.191406 L 13.917969 -13.0625 L 14.058594 -12.929688 C 13.820312 -13.15625 13.578125 -13.339844 13.339844 -13.472656 C 13.285156 -13.503906 13.238281 -13.527344 13.199219 -13.542969 C 13.210938 -13.539062 13.234375 -13.53125 13.269531 -13.519531 L 13.480469 -13.453125 L 13.683594 -13.378906 C 13.902344 -13.304688 14.324219 -13.273438 14.953125 -13.292969 C 16.226562 -13.328125 17.660156 -13.691406 19.257812 -14.386719 C 20.765625 -15.023438 22.058594 -15.867188 23.140625 -16.914062 L 42.988281 -36.074219 L 45.414062 -1.792969 L 32.566406 -0.886719 L 32.21875 -13.761719 L 47.226562 -14.167969 L 47.574219 -1.292969 L 34.695312 -1.078125 L 33.890625 -48.761719 L 46.769531 -48.980469 L 46.539062 -36.101562 L 33.433594 -36.335938 C 29.476562 -36.421875 24.898438 -36.457031 19.703125 -36.445312 C 14.394531 -36.429688 8.761719 -36.371094 2.800781 -36.273438 L 2.589844 -49.152344 L 15.464844 -49.503906 L 16.03125 -28.707031 L 3.15625 -28.359375 L 1.691406 -41.15625 L 43.832031 -45.96875 L 45.078125 -0.148438 L 27.164062 -6.863281 C 25.59375 -7.453125 23.546875 -8.03125 21.023438 -8.605469 L 23.867188 -21.164062 L 21.332031 -8.539062 C 19.125 -8.980469 16.941406 -9.171875 14.773438 -9.113281 C 13.890625 -9.089844 13.101562 -8.996094 12.402344 -8.828125 L 12.398438 -8.835938 C 12.523438 -8.890625 12.652344 -8.964844 12.789062 -9.0625 C 13.351562 -9.460938 13.769531 -9.929688 14.046875 -10.46875 C 14.273438 -10.90625 14.421875 -11.320312 14.5 -11.710938 C 14.515625 -11.796875 14.523438 -11.859375 14.527344 -11.910156 C 14.527344 -11.886719 14.527344 -11.84375 14.527344 -11.78125 Z M 27.195312 -11.636719 C 27.152344 -13.210938 26.710938 -14.730469 25.875 -16.1875 C 24.890625 -17.902344 23.546875 -19.214844 21.847656 -20.125 L 22.144531 -19.964844 L 22.429688 -19.792969 C 21.664062 -20.257812 20.878906 -20.574219 20.078125 -20.746094 C 19.679688 -20.832031 19.34375 -20.871094 19.066406 -20.863281 C 17.824219 -20.832031 16.695312 -20.542969 15.683594 -20 L 15.894531 -20.113281 L 16.109375 -20.21875 L 16.113281 -20.222656 C 16.148438 -20.25 16.226562 -20.328125 16.347656 -20.453125 L 25.699219 -11.59375 L 16.84375 -2.242188 C 16.515625 -2.550781 16.207031 -2.816406 15.917969 -3.035156 L 23.6875 -13.308594 L 16.59375 -2.558594 C 16.324219 -2.734375 16.039062 -2.902344 15.734375 -3.054688 L 21.59375 -14.527344 L 16.964844 -2.507812 C 17.773438 -2.195312 18.644531 -2.050781 19.578125 -2.078125 C 19.855469 -2.085938 20.1875 -2.144531 20.582031 -2.25 C 21.371094 -2.464844 22.136719 -2.824219 22.878906 -3.332031 L 15.621094 -13.972656 L 23.390625 -3.699219 C 24.589844 -4.605469 25.53125 -5.765625 26.214844 -7.175781 C 26.910156 -8.613281 27.238281 -10.097656 27.195312 -11.636719 Z M 1.445312 -10.9375 C 1.371094 -13.585938 1.902344 -16.074219 3.03125 -18.40625 C 4.148438 -20.714844 5.753906 -22.660156 7.851562 -24.246094 L 8.105469 -24.433594 L 8.363281 -24.613281 C 11.347656 -26.648438 14.851562 -27.71875 18.875 -27.828125 C 21.378906 -27.898438 23.828125 -27.46875 26.222656 -26.546875 L 26.851562 -26.304688 L 27.453125 -25.996094 C 28.609375 -25.40625 29.71875 -24.761719 30.785156 -24.054688 L 31.128906 -23.828125 L 31.457031 -23.582031 C 32.507812 -22.789062 33.539062 -21.910156 34.554688 -20.949219 L 43.90625 -12.089844 L 35.050781 -2.738281 C 33.898438 -1.519531 32.699219 -0.449219 31.453125 0.472656 C 30.175781 1.421875 28.824219 2.242188 27.402344 2.933594 L 21.753906 -8.640625 L 27.824219 2.71875 C 25.261719 4.085938 22.578125 4.808594 19.765625 4.886719 C 15.742188 4.996094 12.183594 4.117188 9.09375 2.246094 L 15.761719 -8.773438 L 9.679688 2.578125 C 7.046875 1.167969 5 -0.8125 3.535156 -3.363281 C 2.214844 -5.660156 1.519531 -8.183594 1.445312 -10.9375 Z M 1.445312 -10.9375 "/></g></g></g><g fill="#1e5282" fill-opacity="1"><g transform="translate(578.864846, 396.000983)"><g><path d="M -12.421875 -66.59375 L 32.0625 -77.234375 L 36.21875 -58.0625 L 9.078125 -51.15625 L 11.203125 -41.390625 L 32.46875 -48 L 36.3125 -30.25 L 15.796875 -24.828125 L 20.234375 -4.390625 L 1.921875 -0.421875 Z M -12.421875 -66.59375 "/></g></g></g><g fill="#1e5282" fill-opacity="1"><g transform="translate(624.920644, 385.883232)"><g><path d="M -4.171875 -47.796875 L 13.015625 -51.59375 L 16.5 -25.234375 C 16.789062 -23.359375 17.082031 -21.679688 17.375 -20.203125 C 17.601562 -18.710938 17.957031 -17.476562 18.4375 -16.5 C 18.914062 -15.5 19.554688 -14.800781 20.359375 -14.40625 C 21.078125 -13.914062 22.085938 -13.769531 23.390625 -13.96875 C 23.523438 -13.988281 23.675781 -14.046875 23.84375 -14.140625 C 23.976562 -14.160156 24.144531 -14.1875 24.34375 -14.21875 C 25.9375 -14.582031 27.113281 -15.085938 27.875 -15.734375 C 28.632812 -16.390625 29.140625 -17.226562 29.390625 -18.25 C 29.640625 -19.21875 29.679688 -20.445312 29.515625 -21.9375 C 29.304688 -23.363281 29.046875 -25.082031 28.734375 -27.09375 L 24.828125 -52.203125 L 41.921875 -55.96875 L 45.84375 -30.859375 C 46.320312 -27.691406 46.585938 -24.597656 46.640625 -21.578125 C 46.722656 -18.472656 46.164062 -15.601562 44.96875 -12.96875 C 43.78125 -10.34375 41.710938 -8.082031 38.765625 -6.1875 C 35.816406 -4.207031 31.5625 -2.796875 26 -1.953125 C 20.894531 -1.171875 16.738281 -1.304688 13.53125 -2.359375 C 10.269531 -3.378906 7.679688 -4.972656 5.765625 -7.140625 C 3.796875 -9.210938 2.347656 -11.738281 1.421875 -14.71875 C 0.523438 -17.613281 -0.148438 -20.582031 -0.609375 -23.625 Z M -4.171875 -47.796875 "/></g></g></g><g fill="#1e5282" fill-opacity="1"><g transform="translate(674.74479, 378.306011)"><g><path d="M 21.3125 -52.3125 C 25.34375 -52.664062 28.820312 -52.613281 31.75 -52.15625 C 34.6875 -51.625 37.175781 -50.597656 39.21875 -49.078125 C 41.257812 -47.535156 42.851562 -45.441406 44 -42.796875 C 45.09375 -40.066406 45.816406 -36.679688 46.171875 -32.640625 L 46.46875 -29.21875 C 46.59375 -27.851562 46.554688 -26.4375 46.359375 -24.96875 C 46.171875 -23.4375 45.742188 -21.925781 45.078125 -20.4375 C 44.441406 -18.851562 43.390625 -17.410156 41.921875 -16.109375 C 40.390625 -14.785156 38.382812 -13.65625 35.90625 -12.71875 C 33.4375 -11.78125 30.3125 -11.144531 26.53125 -10.8125 L 26.515625 -8.734375 C 31.335938 -9.097656 35.273438 -9.085938 38.328125 -8.703125 C 41.390625 -8.304688 43.816406 -7.664062 45.609375 -6.78125 C 47.328125 -5.820312 48.578125 -4.648438 49.359375 -3.265625 C 50.085938 -1.816406 50.523438 -0.273438 50.671875 1.359375 C 50.835938 3.242188 50.332031 5.054688 49.15625 6.796875 C 47.9375 8.554688 46.207031 10.148438 43.96875 11.578125 C 41.726562 13.023438 39.078125 14.210938 36.015625 15.140625 C 32.953125 16.128906 29.59375 16.785156 25.9375 17.109375 C 23.007812 17.367188 20.082031 17.296875 17.15625 16.890625 C 14.164062 16.578125 11.476562 15.929688 9.09375 14.953125 C 6.71875 14.054688 4.742188 12.882812 3.171875 11.4375 C 1.597656 10.007812 0.726562 8.3125 0.5625 6.34375 C 0.351562 4 0.863281 1.984375 2.09375 0.296875 C 3.332031 -1.378906 4.945312 -2.800781 6.9375 -3.96875 C 8.9375 -5.132812 11.148438 -6.050781 13.578125 -6.71875 C 15.960938 -7.382812 18.253906 -7.878906 20.453125 -8.203125 L 19.984375 -10.140625 C 16.597656 -9.835938 13.738281 -9.914062 11.40625 -10.375 C 9.070312 -10.75 7.140625 -11.363281 5.609375 -12.21875 C 4.035156 -13.070312 2.835938 -14.082031 2.015625 -15.25 C 1.171875 -16.425781 0.535156 -17.648438 0.109375 -18.921875 C -0.328125 -20.191406 -0.597656 -21.445312 -0.703125 -22.6875 L -0.984375 -25.71875 C -1.390625 -30.34375 -1.40625 -34.1875 -1.03125 -37.25 C -0.632812 -40.238281 0.238281 -42.710938 1.59375 -44.671875 C 2.863281 -46.546875 4.695312 -48.019531 7.09375 -49.09375 C 9.4375 -50.082031 12.382812 -50.90625 15.9375 -51.5625 C 15.082031 -53.050781 14.34375 -54.6875 13.71875 -56.46875 C 13.050781 -58.25 12.632812 -60.082031 12.46875 -61.96875 C 12.34375 -63.332031 12.820312 -64.554688 13.90625 -65.640625 C 14.9375 -66.660156 16.300781 -67.570312 18 -68.375 C 19.695312 -69.1875 21.609375 -69.878906 23.734375 -70.453125 C 25.847656 -71.035156 27.90625 -71.515625 29.90625 -71.890625 C 31.832031 -72.265625 33.644531 -72.585938 35.34375 -72.859375 C 36.96875 -73.078125 38.140625 -73.21875 38.859375 -73.28125 C 38.796875 -73.195312 38.773438 -72.632812 38.796875 -71.59375 C 38.828125 -70.539062 38.875 -69.296875 38.9375 -67.859375 C 38.9375 -66.347656 38.972656 -64.804688 39.046875 -63.234375 C 39.128906 -61.597656 39.191406 -60.125 39.234375 -58.8125 L 27.09375 -56.78125 C 25.019531 -56.519531 23.472656 -56.210938 22.453125 -55.859375 C 21.429688 -55.515625 20.773438 -55.164062 20.484375 -54.8125 C 20.191406 -54.382812 20.160156 -53.984375 20.390625 -53.609375 C 20.566406 -53.160156 20.875 -52.726562 21.3125 -52.3125 Z M 23.4375 -39.015625 L 22.765625 -38.953125 C 22.503906 -38.929688 22.21875 -38.875 21.90625 -38.78125 C 20.34375 -38.507812 19.191406 -38.140625 18.453125 -37.671875 C 17.628906 -37.210938 17.050781 -36.664062 16.71875 -36.03125 C 16.382812 -35.351562 16.25 -34.625 16.3125 -33.84375 C 16.332031 -32.988281 16.390625 -32.015625 16.484375 -30.921875 C 16.660156 -28.890625 16.835938 -27.222656 17.015625 -25.921875 C 17.191406 -24.628906 17.507812 -23.644531 17.96875 -22.96875 C 18.363281 -22.207031 19 -21.734375 19.875 -21.546875 C 20.675781 -21.296875 21.863281 -21.238281 23.4375 -21.375 C 25.0625 -21.519531 26.285156 -21.789062 27.109375 -22.1875 C 27.929688 -22.519531 28.5 -23.097656 28.8125 -23.921875 C 29.144531 -24.671875 29.285156 -25.695312 29.234375 -27 C 29.117188 -28.300781 28.972656 -29.96875 28.796875 -32 C 28.710938 -32.96875 28.660156 -33.914062 28.640625 -34.84375 C 28.554688 -35.757812 28.351562 -36.554688 28.03125 -37.234375 C 27.71875 -37.867188 27.21875 -38.351562 26.53125 -38.6875 C 25.84375 -39.019531 24.8125 -39.128906 23.4375 -39.015625 Z M 38.140625 1.265625 C 38.066406 0.484375 36.800781 -0.0976562 34.34375 -0.484375 C 31.863281 -0.835938 28.867188 -0.859375 25.359375 -0.546875 C 23.660156 -0.398438 22.070312 -0.195312 20.59375 0.0625 C 19.101562 0.375 17.816406 0.710938 16.734375 1.078125 C 15.585938 1.441406 14.703125 1.816406 14.078125 2.203125 C 13.398438 2.648438 13.078125 3.070312 13.109375 3.46875 C 13.140625 3.863281 13.53125 4.191406 14.28125 4.453125 C 14.957031 4.785156 15.898438 5.03125 17.109375 5.1875 C 18.234375 5.34375 19.554688 5.425781 21.078125 5.4375 C 22.578125 5.425781 24.175781 5.347656 25.875 5.203125 C 29.382812 4.890625 32.332031 4.363281 34.71875 3.625 C 37.070312 2.90625 38.210938 2.117188 38.140625 1.265625 Z M 38.140625 1.265625 "/></g></g></g><g fill="#1e5282" fill-opacity="1"><g transform="translate(721.171209, 374.120676)"><g><path d="M 1.65625 -11.421875 C 1.601562 -13.390625 1.921875 -15.035156 2.609375 -16.359375 C 3.285156 -17.691406 4.203125 -18.765625 5.359375 -19.578125 C 6.515625 -20.390625 7.875 -20.976562 9.4375 -21.34375 C 10.988281 -21.71875 12.648438 -21.929688 14.421875 -21.984375 C 17.554688 -22.066406 20.703125 -21.796875 23.859375 -21.171875 C 26.953125 -20.472656 29.5625 -19.726562 31.6875 -18.9375 L 31.34375 -31.578125 L 3.15625 -28.359375 L 2.59375 -49.15625 C 8.613281 -49.257812 14.300781 -49.316406 19.65625 -49.328125 C 24.96875 -49.335938 29.648438 -49.300781 33.703125 -49.21875 C 38.421875 -49.144531 42.773438 -49.066406 46.765625 -48.984375 L 47.578125 -1.296875 L 32.5625 -0.890625 L 32.078125 -7.640625 C 29.847656 -5.484375 27.242188 -3.773438 24.265625 -2.515625 C 21.234375 -1.191406 18.25 -0.492188 15.3125 -0.421875 C 13.082031 -0.359375 11.109375 -0.628906 9.390625 -1.234375 C 7.679688 -1.773438 6.285156 -2.554688 5.203125 -3.578125 C 4.054688 -4.585938 3.207031 -5.773438 2.65625 -7.140625 C 2.03125 -8.492188 1.695312 -9.921875 1.65625 -11.421875 Z M 14.328125 -11.28125 C 14.359375 -10.101562 14.835938 -9.269531 15.765625 -8.78125 C 16.703125 -8.207031 17.921875 -7.941406 19.421875 -7.984375 C 20.191406 -8.003906 20.96875 -8.222656 21.75 -8.640625 C 22.457031 -8.984375 23.132812 -9.394531 23.78125 -9.875 C 24.414062 -10.351562 25.050781 -10.925781 25.6875 -11.59375 C 25.007812 -12.238281 24.34375 -12.8125 23.6875 -13.3125 C 23.019531 -13.75 22.320312 -14.15625 21.59375 -14.53125 C 20.789062 -14.832031 20.003906 -14.972656 19.234375 -14.953125 C 17.734375 -14.910156 16.53125 -14.585938 15.625 -13.984375 C 14.726562 -13.296875 14.296875 -12.394531 14.328125 -11.28125 Z M 14.328125 -11.28125 "/></g></g></g></svg>