<svg xmlns="http://www.w3.org/2000/svg" xmlns:xlink="http://www.w3.org/1999/xlink" width="1920" zoomAndPan="magnify" viewBox="0 0 1440 809.999993" height="1080" preserveAspectRatio="xMidYMid meet" version="1.0"><defs><clipPath id="fb2b4a37d9"><path d="M 679 392 L 719.9375 392 L 719.9375 416 L 679 416 Z M 679 392 " clip-rule="nonzero"/></clipPath><clipPath id="2af04e100c"><path d="M 664.4375 378.332031 L 702 378.332031 L 702 431.582031 L 664.4375 431.582031 Z M 664.4375 378.332031 " clip-rule="nonzero"/></clipPath></defs><g clip-path="url(#fb2b4a37d9)"><path fill="#ffffff" d="M 719.878906 403.707031 C 719.878906 403.484375 719.808594 403.261719 719.734375 403.042969 C 719.660156 402.96875 719.585938 402.820312 719.511719 402.746094 C 719.4375 402.671875 719.4375 402.597656 719.363281 402.527344 L 709.996094 393.082031 C 709.332031 392.421875 708.300781 392.421875 707.636719 393.082031 C 706.972656 393.746094 706.972656 395 707.636719 395.664062 L 714.199219 402.453125 L 681.523438 402.453125 C 680.636719 402.453125 679.824219 403.191406 679.824219 404.148438 C 679.824219 405.035156 680.5625 405.84375 681.523438 405.84375 L 714.199219 405.84375 L 707.636719 412.261719 C 706.972656 412.925781 706.972656 413.886719 707.636719 414.550781 C 708.300781 415.214844 709.332031 415.140625 709.996094 414.476562 L 719.4375 405.035156 C 719.511719 404.960938 719.585938 404.886719 719.585938 404.738281 C 719.660156 404.664062 719.734375 404.589844 719.734375 404.445312 C 719.878906 404.148438 719.878906 403.925781 719.878906 403.707031 Z M 719.878906 403.707031 " fill-opacity="1" fill-rule="nonzero"/></g><g clip-path="url(#2af04e100c)"><path fill="#ffffff" d="M 697.898438 415.359375 L 697.898438 428.34375 L 667.875 428.34375 L 667.875 381.648438 L 697.898438 381.648438 L 697.898438 393.820312 L 701.21875 393.820312 L 701.21875 381.648438 C 701.21875 379.804688 699.816406 378.332031 698.121094 378.332031 L 667.65625 378.332031 C 665.957031 378.332031 664.558594 379.804688 664.558594 381.648438 L 664.558594 428.34375 C 664.558594 430.1875 665.957031 431.664062 667.65625 431.664062 L 698.121094 431.664062 C 699.816406 431.664062 701.21875 430.1875 701.21875 428.34375 L 701.21875 415.359375 Z M 697.898438 415.359375 " fill-opacity="1" fill-rule="nonzero"/></g></svg>